<svg width="25" height="24" viewBox="0 0 25 24" fill="none" xmlns="http://www.w3.org/2000/svg">
<path fill-rule="evenodd" clip-rule="evenodd" d="M7.66406 4.75C7.66406 4.33579 7.99985 4 8.41406 4C8.82828 4 9.16406 4.33579 9.16406 4.75V6H15.1641V4.75C15.1641 4.33579 15.4998 4 15.9141 4C16.3283 4 16.6641 4.33579 16.6641 4.75V6H20.1641C20.7163 6 21.1641 6.44772 21.1641 7V18C21.1641 18.5523 20.7163 19 20.1641 19H4.16406C3.61178 19 3.16406 18.5523 3.16406 18V7C3.16406 6.44772 3.61178 6 4.16406 6H7.66406V4.75ZM15.1641 7.7V8.25C15.1641 8.66421 15.4998 9 15.9141 9C16.3283 9 16.6641 8.66421 16.6641 8.25V7.7H19.4641V10H4.86406V7.7H7.66406V8.25C7.66406 8.66421 7.99985 9 8.41406 9C8.82828 9 9.16406 8.66421 9.16406 8.25V7.7H15.1641ZM4.86406 11.5V17.3H19.4641V11.5H4.86406Z" fill="#367BF5"/>
</svg>
