<svg width="24" height="24" viewBox="0 0 24 24" fill="none" xmlns="http://www.w3.org/2000/svg">
<path fill-rule="evenodd" clip-rule="evenodd" d="M7.5 4.75C7.5 4.33579 7.83579 4 8.25 4C8.66421 4 9 4.33579 9 4.75V6H15V4.75C15 4.33579 15.3358 4 15.75 4C16.1642 4 16.5 4.33579 16.5 4.75V6H20C20.5523 6 21 6.44772 21 7V18C21 18.5523 20.5523 19 20 19H4C3.44772 19 3 18.5523 3 18V7C3 6.44772 3.44772 6 4 6H7.5V4.75ZM15 7.7V8.25C15 8.66421 15.3358 9 15.75 9C16.1642 9 16.5 8.66421 16.5 8.25V7.7H19.3V10H4.7V7.7H7.5V8.25C7.5 8.66421 7.83579 9 8.25 9C8.66421 9 9 8.66421 9 8.25V7.7H15ZM4.7 11.5V17.3H19.3V11.5H4.7Z" fill="#323232"/>
</svg>
