<svg width="24" height="24" viewBox="0 0 24 24" fill="none" xmlns="http://www.w3.org/2000/svg">
<path d="M11 4C11 3.44772 11.4477 3 12 3H19C20.1 3 21 3.9 21 5V14C21 14.5523 20.5523 15 20 15C19.4477 15 19 14.5523 19 14V5H12C11.4477 5 11 4.55228 11 4Z" fill="#919699"/>
<path fill-rule="evenodd" clip-rule="evenodd" d="M5.73333 7H15.2667C16.22 7 17 7.75 17 8.66667V20.3333C17 21.25 16.22 22 15.2667 22H5.73333C4.78 22 4 21.25 4 20.3333V8.66667C4 7.75 4.78 7 5.73333 7ZM15 20H6V9H15V20Z" fill="#919699"/>
</svg>
