<svg width="24" height="24" viewBox="0 0 24 24" fill="none" xmlns="http://www.w3.org/2000/svg">
<path fill-rule="evenodd" clip-rule="evenodd" d="M19.5 7C20.0523 7 20.5 7.44772 20.5 8C20.5 8.55228 20.0523 9 19.5 9H17.3293C16.9175 10.1652 15.8062 11 14.5 11C13.1938 11 12.0825 10.1652 11.6707 9H5C4.44772 9 4 8.55228 4 8C4 7.44772 4.44772 7 5 7H11.6707C12.0825 5.83481 13.1938 5 14.5 5C15.8062 5 16.9175 5.83481 17.3293 7H19.5ZM16 8C16 8.82843 15.3284 9.5 14.5 9.5C13.6716 9.5 13 8.82843 13 8C13 7.17157 13.6716 6.5 14.5 6.5C15.3284 6.5 16 7.17157 16 8Z" fill="#5E6366"/>
<path fill-rule="evenodd" clip-rule="evenodd" d="M5 15C4.44772 15 4 15.4477 4 16C4 16.5523 4.44772 17 5 17H7.17071C7.58254 18.1652 8.69378 19 10 19C11.3062 19 12.4175 18.1652 12.8293 17H19.5C20.0523 17 20.5 16.5523 20.5 16C20.5 15.4477 20.0523 15 19.5 15H12.8293C12.4175 13.8348 11.3062 13 10 13C8.69378 13 7.58254 13.8348 7.17071 15H5ZM8.5 16C8.5 16.8284 9.17157 17.5 10 17.5C10.8284 17.5 11.5 16.8284 11.5 16C11.5 15.1716 10.8284 14.5 10 14.5C9.17157 14.5 8.5 15.1716 8.5 16Z" fill="#5E6366"/>
</svg>
