<svg width="11" height="10" viewBox="0 0 11 10" fill="none" xmlns="http://www.w3.org/2000/svg">
<path fill-rule="evenodd" clip-rule="evenodd" d="M5.18358 9C2.97604 9 1.18555 7.20857 1.18555 5C1.18555 2.79143 2.97604 1 5.18358 1C7.39113 1 9.18162 2.79143 9.18162 5C9.18162 7.20857 7.39113 9 5.18358 9ZM0.185547 5C0.185547 2.23966 2.42324 0 5.18358 0C7.94392 0 10.1816 2.23966 10.1816 5C10.1816 7.76034 7.94392 10 5.18358 10C2.42324 10 0.185547 7.76034 0.185547 5ZM5.18331 5.07132C5.14461 5.07132 5.1123 5.03963 5.1123 4.9999C5.1123 4.96017 5.14461 4.92847 5.18331 4.92847C5.22201 4.92847 5.25431 4.96017 5.25431 4.9999C5.25431 5.03963 5.22201 5.07132 5.18331 5.07132ZM4.1123 4.9999C4.1123 4.4084 4.59181 3.92847 5.18331 3.92847C5.77481 3.92847 6.25431 4.4084 6.25431 4.9999C6.25431 5.59139 5.77481 6.07132 5.18331 6.07132C4.59181 6.07132 4.1123 5.59139 4.1123 4.9999Z" fill="#C6CACC"/>
</svg>
