<svg width="11" height="23" viewBox="0 0 11 23" fill="none" xmlns="http://www.w3.org/2000/svg">
<path fill-rule="evenodd" clip-rule="evenodd" d="M5.19139 0C2.43106 0 0.193359 2.23966 0.193359 5C0.193359 7.76034 2.43106 10 5.19139 10C7.95173 10 10.1894 7.76034 10.1894 5C10.1894 2.23966 7.95173 0 5.19139 0ZM5.19112 5.07132C5.15242 5.07132 5.12012 5.03962 5.12012 4.9999C5.12012 4.96017 5.15242 4.92847 5.19112 4.92847C5.22983 4.92847 5.26213 4.96017 5.26213 4.9999C5.26213 5.03962 5.22983 5.07132 5.19112 5.07132ZM4.12012 4.9999C4.12012 4.40839 4.59962 3.92847 5.19112 3.92847C5.78263 3.92847 6.26213 4.40839 6.26213 4.9999C6.26213 5.5914 5.78263 6.07132 5.19112 6.07132C4.59962 6.07132 4.12012 5.5914 4.12012 4.9999Z" fill="#2FA84F"/>
<path d="M3.13672 3H7.13672V15C7.13672 16.1046 6.24129 17 5.13672 17C4.03215 17 3.13672 16.1046 3.13672 15V3Z" fill="#2FA84F"/>
</svg>
