<svg width="16" height="7" viewBox="0 0 16 7" fill="none" xmlns="http://www.w3.org/2000/svg">
<mask id="path-1-inside-1_2556_4088" fill="white">
<path d="M0.250977 0H15.1937L14.2729 4.5505C14.0842 5.48326 13.2643 6.15385 12.3126 6.15385H3.13204C2.18037 6.15385 1.36051 5.48327 1.17177 4.55051L0.250977 0Z"/>
</mask>
<path d="M0.250977 0V-1H-0.97164L-0.729159 0.19833L0.250977 0ZM15.1937 0L16.1738 0.19833L16.4163 -1H15.1937V0ZM0.250977 1H15.1937V-1H0.250977V1ZM14.2136 -0.19833L13.2928 4.35218L15.253 4.74883L16.1738 0.19833L14.2136 -0.19833ZM12.3126 5.15385H3.13204V7.15385H12.3126V5.15385ZM2.1519 4.35218L1.23111 -0.19833L-0.729159 0.19833L0.191632 4.74884L2.1519 4.35218ZM3.13204 5.15385C2.65621 5.15385 2.24627 4.81856 2.1519 4.35218L0.191632 4.74884C0.474747 6.14797 1.70454 7.15385 3.13204 7.15385V5.15385ZM13.2928 4.35218C13.1984 4.81856 12.7885 5.15385 12.3126 5.15385V7.15385C13.7401 7.15385 14.9699 6.14797 15.253 4.74883L13.2928 4.35218Z" fill="#5E6366" mask="url(#path-1-inside-1_2556_4088)"/>
</svg>
