<svg width="11" height="10" viewBox="0 0 11 10" fill="none" xmlns="http://www.w3.org/2000/svg">
<path fill-rule="evenodd" clip-rule="evenodd" d="M5.18749 9C2.97995 9 1.18945 7.20856 1.18945 5C1.18945 2.79144 2.97995 1 5.18749 1C7.39503 1 9.18552 2.79144 9.18552 5C9.18552 7.20856 7.39503 9 5.18749 9ZM0.189453 5C0.189453 2.23966 2.42715 0 5.18749 0C7.94782 0 10.1855 2.23966 10.1855 5C10.1855 7.76034 7.94782 10 5.18749 10C2.42715 10 0.189453 7.76034 0.189453 5ZM5.18722 5.07132C5.14851 5.07132 5.11621 5.03962 5.11621 4.9999C5.11621 4.96017 5.14851 4.92847 5.18722 4.92847C5.22592 4.92847 5.25823 4.96017 5.25823 4.9999C5.25823 5.03962 5.22592 5.07132 5.18722 5.07132ZM4.11621 4.9999C4.11621 4.40839 4.59572 3.92847 5.18722 3.92847C5.77872 3.92847 6.25823 4.40839 6.25823 4.9999C6.25823 5.5914 5.77872 6.07132 5.18722 6.07132C4.59572 6.07132 4.11621 5.5914 4.11621 4.9999Z" fill="#2FA84F"/>
</svg>
