<svg width="20" height="19" viewBox="0 0 20 19" fill="none" xmlns="http://www.w3.org/2000/svg">
<path fill-rule="evenodd" clip-rule="evenodd" d="M9.94013 0C9.6063 0.00767318 9.27268 0.0339801 8.94104 0.0789504C7.39991 0.287925 5.90165 0.899918 4.6257 1.91788C4.36714 2.12417 4.11771 2.34712 3.87891 2.58677L4.59755 3.28232L6.34261 4.97131C7.34002 3.96019 8.65286 3.43779 9.98275 3.40408L9.95265 0.999983L9.94013 0ZM8.95366 1.08731C7.66901 1.28173 6.42463 1.79232 5.35103 2.6199L6.38281 3.61854C7.16508 3.04401 8.05295 2.67357 8.97143 2.50608L8.95366 1.08731ZM15.8291 1.8311C16.095 2.03482 16.3487 2.25345 16.5889 2.48577L15.88 3.19136L14.1593 4.90401C13.2045 3.99401 11.9087 3.42947 10.4766 3.42947V2.42947V1.02539V0.0253906C10.8147 0.0253906 11.1484 0.0442962 11.4766 0.0811145C13.105 0.263813 14.5977 0.887578 15.8291 1.8311ZM11.4766 1.08822C12.8302 1.25971 14.0728 1.77495 15.1131 2.54375L14.0909 3.56122C13.327 3.0301 12.4385 2.66086 11.4766 2.50809V1.08822ZM18.6136 10.3613C18.4514 11.734 17.9218 12.9952 17.1209 14.0474L16.0862 13.0319C16.6353 12.2544 17.0127 11.3461 17.157 10.3613H18.6136ZM17.229 15.451C17.4448 15.2293 17.6486 14.9962 17.8395 14.7528C18.8118 13.5132 19.4484 12.0056 19.6198 10.3613C19.6506 10.0659 19.6664 9.76597 19.6664 9.46244V9.36133H18.6664H17.2223H16.2223V9.46244C16.2223 10.878 15.6512 12.1587 14.7305 13.1024L17.1771 15.5038C17.1945 15.4863 17.2118 15.4687 17.229 15.451ZM4.34738 9.52128V9.42017H3.34738H1.90332H0.90332V9.52128C0.90332 9.82477 0.919288 10.1247 0.950414 10.4202C1.12536 12.0811 1.77918 13.6036 2.76844 14.8491C2.96635 15.0983 3.17769 15.3364 3.40131 15.5623L3.43522 15.5964L5.86474 13.1782L5.86482 13.1781C4.92708 12.2344 4.35591 10.9453 4.34738 9.52128ZM4.50813 13.1176C3.9458 12.3326 3.56397 11.4139 3.41596 10.4202H1.95673C2.12243 11.8057 2.66608 13.08 3.48221 14.1387L4.50813 13.1176ZM19.5588 7.90678C19.603 8.23854 19.6278 8.5723 19.633 8.90626L18.633 8.9136L16.189 8.93154C16.1642 7.65825 15.6755 6.40078 14.7228 5.41953C14.692 5.3878 14.6607 5.35637 14.6289 5.32523L15.3377 4.61973L17.0585 2.90698C17.0932 2.9413 17.1276 2.97582 17.1616 3.01057C17.3633 3.21652 17.5526 3.42992 17.7297 3.64984C18.7456 4.91167 19.3563 6.38826 19.5588 7.90678ZM17.0165 4.35974C17.8487 5.42294 18.36 6.65032 18.5499 7.91418L17.0905 7.92489C16.9267 7.02128 16.561 6.14881 15.9941 5.3773L17.0165 4.35974ZM15.9998 15.1284L14.2703 13.4309L14.1936 13.5067C13.1876 14.5094 11.8663 15.0234 10.5449 15.0487L10.563 17.4528L10.5705 18.4528C10.9044 18.4477 11.2382 18.4237 11.57 18.3809C13.1434 18.1779 14.6728 17.5512 15.9705 16.5008C16.2014 16.3139 16.425 16.1135 16.6402 15.8997C16.6658 15.8744 16.6914 15.8492 16.717 15.8323L15.9998 15.1284ZM15.2515 15.7951L14.2311 14.7936C13.4239 15.3983 12.5018 15.7841 11.5517 15.9522L11.5624 17.3727C12.879 17.1822 14.155 16.6562 15.2515 15.7951ZM4.52907 5.32286C3.91841 6.1316 3.53349 7.05312 3.37333 8.0056L1.91169 8.01632C2.09027 6.69799 2.62077 5.41726 3.50167 4.31446L4.52907 5.32286ZM4.28781 8.99891L1.84375 9.01685L0.84375 9.02419C0.84375 8.68993 0.863445 8.35586 0.902774 8.02373C1.08952 6.44669 1.71896 4.91339 2.78468 3.61073C2.91208 3.45501 3.04571 3.30258 3.18557 3.15376C3.25043 3.08475 3.31663 3.01651 3.38417 2.94908L3.4609 2.87325L5.19379 4.57409L5.90754 5.27464L5.83082 5.35048C5.77431 5.40633 5.71936 5.46311 5.66598 5.52076C4.75286 6.50683 4.29586 7.74911 4.28781 8.99891ZM6.29146 13.4646L6.36818 13.5404C7.3997 14.5431 8.73811 15.0403 10.0765 15.0403L10.1066 17.4444L10.1191 18.4443C9.78499 18.4456 9.45084 18.4282 9.11841 18.3922C7.51691 18.2186 5.95563 17.6113 4.62829 16.5642C4.3966 16.3814 4.17204 16.1852 3.95563 15.9755L3.87893 15.8997L3.87891 15.8997L4.58272 15.1893L6.29146 13.4646ZM6.34754 14.8288C7.17599 15.4343 8.11851 15.8115 9.088 15.9633L9.10579 17.3841C7.76258 17.2177 6.45875 16.707 5.33721 15.8486L6.34754 14.8288Z" fill="#5E6366"/>
</svg>
