<svg width="40" height="40" viewBox="0 0 40 40" fill="none" xmlns="http://www.w3.org/2000/svg">
<path d="M20 10C16.13 10 13 13.13 13 17C13 22.25 20 30 20 30C20 30 27 22.25 27 17C27 13.13 23.87 10 20 10ZM15 17C15 14.24 17.24 12 20 12C22.76 12 25 14.24 25 17C25 19.88 22.12 24.19 20 26.88C17.92 24.21 15 19.85 15 17Z" fill="#5E6366"/>
<path d="M22.5 17.5C22.5 18.8807 21.3807 20 20 20C18.6193 20 17.5 18.8807 17.5 17.5C17.5 16.1193 18.6193 15 20 15C21.3807 15 22.5 16.1193 22.5 17.5Z" stroke="#5E6366" stroke-width="2"/>
</svg>
