<svg width="25" height="24" viewBox="0 0 25 24" fill="none" xmlns="http://www.w3.org/2000/svg">
<path fill-rule="evenodd" clip-rule="evenodd" d="M19.1641 5.5H5.16406C4.88792 5.5 4.66406 5.72386 4.66406 6V8C4.66406 8.27614 4.88792 8.5 5.16406 8.5H19.1641C19.4402 8.5 19.6641 8.27614 19.6641 8V6C19.6641 5.72386 19.4402 5.5 19.1641 5.5ZM5.16406 4C4.05949 4 3.16406 4.89543 3.16406 6V8C3.16406 9.10457 4.05949 10 5.16406 10H19.1641C20.2686 10 21.1641 9.10457 21.1641 8V6C21.1641 4.89543 20.2686 4 19.1641 4H5.16406ZM8.16406 7C8.16406 7.55228 7.71635 8 7.16406 8C6.61178 8 6.16406 7.55228 6.16406 7C6.16406 6.44772 6.61178 6 7.16406 6C7.71635 6 8.16406 6.44772 8.16406 7ZM15.6641 6.5C15.3879 6.5 15.1641 6.72386 15.1641 7C15.1641 7.27614 15.3879 7.5 15.6641 7.5H17.6641C17.9402 7.5 18.1641 7.27614 18.1641 7C18.1641 6.72386 17.9402 6.5 17.6641 6.5H15.6641Z" fill="#367BF5"/>
<path fill-rule="evenodd" clip-rule="evenodd" d="M19.1641 10.5H5.16406C4.88792 10.5 4.66406 10.7239 4.66406 11V13C4.66406 13.2761 4.88792 13.5 5.16406 13.5H19.1641C19.4402 13.5 19.6641 13.2761 19.6641 13V11C19.6641 10.7239 19.4402 10.5 19.1641 10.5ZM5.16406 9C4.05949 9 3.16406 9.89543 3.16406 11V13C3.16406 14.1046 4.05949 15 5.16406 15H19.1641C20.2686 15 21.1641 14.1046 21.1641 13V11C21.1641 9.89543 20.2686 9 19.1641 9H5.16406ZM8.16406 12C8.16406 12.5523 7.71635 13 7.16406 13C6.61178 13 6.16406 12.5523 6.16406 12C6.16406 11.4477 6.61178 11 7.16406 11C7.71635 11 8.16406 11.4477 8.16406 12ZM15.6641 11.5C15.3879 11.5 15.1641 11.7239 15.1641 12C15.1641 12.2761 15.3879 12.5 15.6641 12.5H17.6641C17.9402 12.5 18.1641 12.2761 18.1641 12C18.1641 11.7239 17.9402 11.5 17.6641 11.5H15.6641Z" fill="#367BF5"/>
<path fill-rule="evenodd" clip-rule="evenodd" d="M19.1641 15.5H5.16406C4.88792 15.5 4.66406 15.7239 4.66406 16V18C4.66406 18.2761 4.88792 18.5 5.16406 18.5H19.1641C19.4402 18.5 19.6641 18.2761 19.6641 18V16C19.6641 15.7239 19.4402 15.5 19.1641 15.5ZM5.16406 14C4.05949 14 3.16406 14.8954 3.16406 16V18C3.16406 19.1046 4.05949 20 5.16406 20H19.1641C20.2686 20 21.1641 19.1046 21.1641 18V16C21.1641 14.8954 20.2686 14 19.1641 14H5.16406ZM8.16406 17C8.16406 17.5523 7.71635 18 7.16406 18C6.61178 18 6.16406 17.5523 6.16406 17C6.16406 16.4477 6.61178 16 7.16406 16C7.71635 16 8.16406 16.4477 8.16406 17ZM15.6641 16.5C15.3879 16.5 15.1641 16.7239 15.1641 17C15.1641 17.2761 15.3879 17.5 15.6641 17.5H17.6641C17.9402 17.5 18.1641 17.2761 18.1641 17C18.1641 16.7239 17.9402 16.5 17.6641 16.5H15.6641Z" fill="#367BF5"/>
</svg>
