<svg width="40" height="40" viewBox="0 0 40 40" fill="none" xmlns="http://www.w3.org/2000/svg">
<path d="M20.5 13.3784C23.1067 13.3784 25.2222 15.5578 25.2222 18.2432V25.0541H15.7778V18.2432C15.7778 15.5578 17.8933 13.3784 20.5 13.3784ZM20.5 9C19.7161 9 19.0833 9.65189 19.0833 10.4595V11.5978C16.1178 12.2595 13.8889 14.9838 13.8889 18.2432V24.0811L12 26.027V27H29V26.027L27.1111 24.0811V18.2432C27.1111 14.9838 24.8822 12.2595 21.9167 11.5978V10.4595C21.9167 9.65189 21.2839 9 20.5 9Z" fill="#5E6366"/>
<path d="M20.49 29.99C19.39 29.99 18.5 29.1 18.5 28H22.48C22.48 29.1 21.59 29.99 20.49 29.99Z" fill="#5E6366"/>
</svg>
