<svg width="24" height="24" viewBox="0 0 24 24" fill="none" xmlns="http://www.w3.org/2000/svg">
<path fill-rule="evenodd" clip-rule="evenodd" d="M2 12C2 6.48 6.48 2 12 2C17.52 2 22 6.48 22 12C22 17.52 17.52 22 12 22C6.48 22 2 17.52 2 12ZM4 12C4 16.41 7.59 20 12 20C16.41 20 20 16.41 20 12C20 7.59 16.41 4 12 4C7.59 4 4 7.59 4 12ZM10 9.40887L14.4647 12L10 14.5911V9.40887ZM16.2754 10.7384C17.2415 11.2991 17.2415 12.7009 16.2754 13.2616L10.1738 16.8027C9.20768 17.3634 8 16.6625 8 15.5411V8.45893C8 7.33752 9.20768 6.63663 10.1738 7.19734L16.2754 10.7384Z" fill="#367BF5"/>
</svg>
