<svg width="25" height="24" viewBox="0 0 25 24" fill="none" xmlns="http://www.w3.org/2000/svg">
<path fill-rule="evenodd" clip-rule="evenodd" d="M12.8661 2.46167L8.82769 5.202L13.047 7.65467L12.9895 6.00218C16.5039 6.08884 19.3262 8.96491 19.3262 12.5002C19.3262 16.09 16.416 19.0002 12.8262 19.0002C9.23632 19.0002 6.32617 16.09 6.32617 12.5002C6.32617 11.9479 5.87846 11.5002 5.32617 11.5002C4.77389 11.5002 4.32617 11.9479 4.32617 12.5002C4.32617 17.1946 8.13175 21.0002 12.8262 21.0002C17.5206 21.0002 21.3262 17.1946 21.3262 12.5002C21.3262 7.83698 17.5711 4.05085 12.9197 4.00068L12.8661 2.46167Z" fill="#367BF5"/>
</svg>
