<svg width="24" height="24" viewBox="0 0 24 24" fill="none" xmlns="http://www.w3.org/2000/svg">
<path d="M5.5293 17.6662L5.43663 17.6588L5.34419 17.6686C5.3133 17.6719 5.26995 17.6755 5.21751 17.6798C5.0774 17.6913 4.87244 17.7081 4.66728 17.7392C3.96662 16.9147 3.42365 16.0321 3.0719 15.0689C3.79936 14.1251 4.2052 13.0731 4.2052 11.972C4.2052 10.8734 3.80125 9.82534 3.07635 8.88652C3.44951 7.91038 3.97878 7.01497 4.66247 6.20249C7.27431 6.59729 9.39511 5.08939 10.1593 3.14174C11.3741 2.9483 12.584 2.95529 13.7995 3.14783C14.1993 4.13042 14.8339 4.93154 15.6748 5.48309C16.5742 6.07307 17.6524 6.34016 18.8149 6.29721L18.8327 6.29765C18.8542 6.29815 18.8956 6.29904 18.9426 6.29759C18.9896 6.29614 19.0584 6.29201 19.1378 6.27814C19.1882 6.26936 19.251 6.25527 19.321 6.23135C19.3395 6.2521 19.3615 6.27808 19.387 6.31047L19.387 6.31049L19.3922 6.31695C20.0507 7.1364 20.5708 7.99497 20.9148 8.91818C19.4227 10.7423 19.4123 13.2772 20.9124 15.1193C20.5356 16.0853 20.0008 16.9745 19.3202 17.7975C17.8942 17.5935 16.5317 17.8824 15.3346 18.8181L15.3335 18.819C14.6547 19.3512 14.1212 20.0333 13.8121 20.8565C12.5686 21.0346 11.362 21.0574 10.1569 20.8655C9.46808 19.1664 8.14731 18.095 6.27245 17.7563C6.03434 17.7028 5.78596 17.6849 5.61243 17.6724C5.58232 17.6702 5.55446 17.6682 5.5293 17.6662ZM9.90516 3.18633C9.90504 3.18628 9.90731 3.18554 9.91233 3.18424C9.90779 3.18572 9.90528 3.18637 9.90516 3.18633ZM14.0326 3.18713C14.0326 3.18713 14.0321 3.18703 14.0312 3.1868L14.0326 3.18713Z" stroke="white" stroke-width="2"/>
<circle cx="12.0001" cy="12.0001" r="3.66444" stroke="white" stroke-width="1.56"/>
</svg>
