<svg width="25" height="24" viewBox="0 0 25 24" fill="none" xmlns="http://www.w3.org/2000/svg">
<path d="M12.3262 2.00024C6.80617 2.00024 2.32617 6.48024 2.32617 12.0002C2.32617 17.5202 6.80617 22.0002 12.3262 22.0002C17.8462 22.0002 22.3262 17.5202 22.3262 12.0002C22.3262 6.48024 17.8462 2.00024 12.3262 2.00024ZM12.3262 20.0002C7.91617 20.0002 4.32617 16.4102 4.32617 12.0002C4.32617 7.59024 7.91617 4.00024 12.3262 4.00024C16.7362 4.00024 20.3262 7.59024 20.3262 12.0002C20.3262 16.4102 16.7362 20.0002 12.3262 20.0002Z" fill="#367BF5"/>
<mask id="path-2-inside-1_2401_33151" fill="white">
<path fill-rule="evenodd" clip-rule="evenodd" d="M16.3262 8.00024H8.32617V16.0002H16.3262V8.00024ZM14.3262 10.0002H10.3262V14.0002H14.3262V10.0002Z"/>
</mask>
<path fill-rule="evenodd" clip-rule="evenodd" d="M16.3262 8.00024H8.32617V16.0002H16.3262V8.00024ZM14.3262 10.0002H10.3262V14.0002H14.3262V10.0002Z" fill="#367BF5"/>
<path d="M8.32617 8.00024V7.00024H7.32617V8.00024H8.32617ZM16.3262 8.00024H17.3262V7.00024H16.3262V8.00024ZM8.32617 16.0002H7.32617V17.0002H8.32617V16.0002ZM16.3262 16.0002V17.0002H17.3262V16.0002H16.3262ZM10.3262 10.0002V9.00024H9.32617V10.0002H10.3262ZM14.3262 10.0002H15.3262V9.00024H14.3262V10.0002ZM10.3262 14.0002H9.32617V15.0002H10.3262V14.0002ZM14.3262 14.0002V15.0002H15.3262V14.0002H14.3262ZM8.32617 9.00024H16.3262V7.00024H8.32617V9.00024ZM9.32617 16.0002V8.00024H7.32617V16.0002H9.32617ZM16.3262 15.0002H8.32617V17.0002H16.3262V15.0002ZM15.3262 8.00024V16.0002H17.3262V8.00024H15.3262ZM10.3262 11.0002H14.3262V9.00024H10.3262V11.0002ZM11.3262 14.0002V10.0002H9.32617V14.0002H11.3262ZM14.3262 13.0002H10.3262V15.0002H14.3262V13.0002ZM13.3262 10.0002V14.0002H15.3262V10.0002H13.3262Z" fill="#367BF5" mask="url(#path-2-inside-1_2401_33151)"/>
</svg>
