<svg width="32" height="32" viewBox="0 0 32 32" fill="none" xmlns="http://www.w3.org/2000/svg">
<path fill-rule="evenodd" clip-rule="evenodd" d="M16 30C23.732 30 30 23.732 30 16C30 8.26801 23.732 2 16 2C8.26801 2 2 8.26801 2 16C2 23.732 8.26801 30 16 30ZM24.6585 18.2474L16.6585 11.2474C16.2815 10.9175 15.7185 10.9175 15.3415 11.2474L7.3415 18.2474C6.92586 18.6111 6.88374 19.2429 7.24742 19.6585C7.61111 20.0741 8.24287 20.1163 8.6585 19.7526L16 13.3288L23.3415 19.7526C23.7571 20.1163 24.3889 20.0741 24.7526 19.6585C25.1163 19.2429 25.0741 18.6111 24.6585 18.2474Z" fill="#367BF5"/>
</svg>
