<svg width="25" height="24" viewBox="0 0 25 24" fill="none" xmlns="http://www.w3.org/2000/svg">
<path d="M12.3262 6.0002C16.1162 6.0002 19.4962 8.1302 21.1462 11.5002C20.5562 12.7202 19.7262 13.7702 18.7362 14.6202L20.1462 16.0302C21.5362 14.8002 22.6362 13.2602 23.3262 11.5002C21.5962 7.1102 17.3262 4.0002 12.3262 4.0002C11.0562 4.0002 9.83617 4.2002 8.68617 4.5702L10.3362 6.2202C10.9862 6.0902 11.6462 6.0002 12.3262 6.0002ZM11.2562 7.14019L13.3262 9.2102C13.8962 9.4602 14.3562 9.9202 14.6062 10.4902L16.6762 12.5602C16.7562 12.2202 16.8162 11.8602 16.8162 11.4902C16.8262 9.0102 14.8062 7.0002 12.3262 7.0002C11.9562 7.0002 11.6062 7.05019 11.2562 7.14019ZM2.33617 3.8702L5.01617 6.5502C3.38617 7.8302 2.09617 9.5302 1.32617 11.5002C3.05617 15.8902 7.32617 19.0002 12.3262 19.0002C13.8462 19.0002 15.3062 18.7102 16.6462 18.1802L20.0662 21.6002L21.4762 20.1902L3.74617 2.4502L2.33617 3.8702ZM9.83617 11.3702L12.4462 13.9802C12.4062 13.9902 12.3662 14.0002 12.3262 14.0002C10.9462 14.0002 9.82617 12.8802 9.82617 11.5002C9.82617 11.4502 9.83617 11.4202 9.83617 11.3702ZM6.43617 7.97019L8.18617 9.7202C7.95617 10.2702 7.82617 10.8702 7.82617 11.5002C7.82617 13.9802 9.84617 16.0002 12.3262 16.0002C12.9562 16.0002 13.5562 15.8702 14.0962 15.6402L15.0762 16.6202C14.1962 16.8602 13.2762 17.0002 12.3262 17.0002C8.53617 17.0002 5.15617 14.8702 3.50617 11.5002C4.20617 10.0702 5.22617 8.89019 6.43617 7.97019Z" fill="#367BF5"/>
</svg>
