<svg width="25" height="24" viewBox="0 0 25 24" fill="none" xmlns="http://www.w3.org/2000/svg">
<path d="M12.1641 6.00024C15.9541 6.00024 19.3341 8.13024 20.9841 11.5002C19.3341 14.8702 15.9541 17.0002 12.1641 17.0002C8.37406 17.0002 4.99406 14.8702 3.34406 11.5002C4.99406 8.13024 8.37406 6.00024 12.1641 6.00024ZM12.1641 4.00024C7.16406 4.00024 2.89406 7.11024 1.16406 11.5002C2.89406 15.8902 7.16406 19.0002 12.1641 19.0002C17.1641 19.0002 21.4341 15.8902 23.1641 11.5002C21.4341 7.11024 17.1641 4.00024 12.1641 4.00024ZM12.1641 9.00024C13.5441 9.00024 14.6641 10.1202 14.6641 11.5002C14.6641 12.8802 13.5441 14.0002 12.1641 14.0002C10.7841 14.0002 9.66406 12.8802 9.66406 11.5002C9.66406 10.1202 10.7841 9.00024 12.1641 9.00024ZM12.1641 7.00024C9.68406 7.00024 7.66406 9.02024 7.66406 11.5002C7.66406 13.9802 9.68406 16.0002 12.1641 16.0002C14.6441 16.0002 16.6641 13.9802 16.6641 11.5002C16.6641 9.02024 14.6441 7.00024 12.1641 7.00024Z" fill="#367BF5"/>
</svg>
