<svg width="156" height="32" viewBox="0 0 156 32" fill="none" xmlns="http://www.w3.org/2000/svg">
<path fill-rule="evenodd" clip-rule="evenodd" d="M0 31.6883V15.7922H3.29197L10.2051 26.3896V15.7922H13.3325V31.6883H9.93077L3.18224 21.2987V31.6883H0Z" fill="white"/>
<path fill-rule="evenodd" clip-rule="evenodd" d="M14.3201 31.6883V15.7922H26.8295V18.4935H17.7218V22.026H26.1712V24.6753H17.7218V29.039H27.1039V31.6883H14.3201Z" fill="white"/>
<path fill-rule="evenodd" clip-rule="evenodd" d="M55.0307 31.6883V18.4935H50.0379V15.7922H63.4252V18.4935H58.4324V31.6883H55.0307Z" fill="white"/>
<path fill-rule="evenodd" clip-rule="evenodd" d="M116.042 25.8701V23.1688H123.339V29.5064C122.626 30.1818 121.583 30.7532 120.267 31.2207C118.895 31.6882 117.523 31.948 116.152 31.948C114.396 31.948 112.86 31.5844 111.543 30.909C110.226 30.2337 109.238 29.1947 108.58 27.896C107.922 26.5973 107.592 25.1947 107.592 23.6363C107.592 21.974 107.977 20.5194 108.69 19.2207C109.403 17.922 110.5 16.935 111.927 16.2597C113.024 15.7402 114.341 15.4805 115.932 15.4805C118.017 15.4805 119.663 15.8961 120.815 16.7272C121.967 17.5584 122.736 18.7012 123.065 20.1558L119.718 20.7272C119.498 19.948 119.06 19.3246 118.401 18.8571C117.743 18.3896 116.92 18.1818 115.932 18.1818C114.451 18.1818 113.244 18.6493 112.366 19.5324C111.488 20.4155 111.049 21.7662 111.049 23.4805C111.049 25.3506 111.488 26.8051 112.366 27.7402C113.244 28.6753 114.396 29.1428 115.877 29.1428C116.591 29.1428 117.304 28.987 118.017 28.7272C118.73 28.4675 119.334 28.1558 119.882 27.7921V25.7662H116.042V25.8701Z" fill="#FAA74A"/>
<path fill-rule="evenodd" clip-rule="evenodd" d="M79.3364 31.6882V15.896H82.7381V29.0388H91.1875V31.6882H79.3364Z" fill="#FAA74A"/>
<path fill-rule="evenodd" clip-rule="evenodd" d="M90.8034 23.8441C90.8034 22.2337 91.0777 20.8831 91.5715 19.7402C91.9556 18.909 92.4494 18.1818 93.1627 17.5584C93.8211 16.935 94.5343 16.4155 95.3573 16.1038C96.3998 15.6883 97.6068 15.4805 98.9785 15.4805C101.447 15.4805 103.423 16.2077 104.904 17.6623C106.385 19.1168 107.154 21.1428 107.154 23.7402C107.154 26.3376 106.44 28.3116 104.959 29.7662C103.477 31.2207 101.502 31.948 99.0333 31.948C96.5095 31.948 94.5343 31.2207 93.0529 29.7662C91.5715 28.3636 90.8034 26.3896 90.8034 23.8441ZM94.3148 23.7402C94.3148 25.5584 94.7538 26.909 95.6316 27.8441C96.5095 28.7792 97.6068 29.2467 98.9785 29.2467C100.35 29.2467 101.447 28.7792 102.325 27.8441C103.203 26.909 103.642 25.5584 103.642 23.6883C103.642 21.8701 103.203 20.5194 102.38 19.5844C101.557 18.7012 100.405 18.2337 99.0333 18.2337C97.6068 18.2337 96.5095 18.7012 95.6316 19.5844C94.7538 20.5194 94.3148 21.8701 94.3148 23.7402Z" fill="#FAA74A"/>
<path fill-rule="evenodd" clip-rule="evenodd" d="M62.3828 23.8441C62.3828 22.2337 62.6571 20.8831 63.1509 19.7402C63.535 18.909 64.0288 18.1818 64.742 17.5584C65.4004 16.935 66.1137 16.4155 66.9367 16.1038C67.9791 15.6883 69.1862 15.4805 70.5578 15.4805C73.0268 15.4805 75.002 16.2077 76.4833 17.6623C77.9647 19.1168 78.7328 21.1428 78.7328 23.7402C78.7328 26.3376 78.0196 28.3116 76.5382 29.7662C75.0568 31.2207 73.0816 31.948 70.6127 31.948C68.0888 31.948 66.1137 31.2207 64.6323 29.7662C63.1509 28.3636 62.3828 26.3896 62.3828 23.8441ZM65.8942 23.7402C65.8942 25.5584 66.3331 26.909 67.211 27.8441C68.0888 28.7792 69.1862 29.2467 70.5578 29.2467C71.9295 29.2467 73.0268 28.7792 73.9046 27.8441C74.7825 26.909 75.2214 25.5584 75.2214 23.6883C75.2214 21.8701 74.7825 20.5194 73.9595 19.5844C73.1365 18.7012 71.9843 18.2337 70.6127 18.2337C69.1862 18.2337 68.0888 18.7012 67.211 19.5844C66.3331 20.5194 65.8942 21.8701 65.8942 23.7402Z" fill="#FAA74A"/>
<path fill-rule="evenodd" clip-rule="evenodd" d="M128.935 31.6883V15.7922H141.445V18.4935H132.337V22.026H140.786V24.6753H132.337V29.039H141.774V31.6883H128.935Z" fill="#FAA74A"/>
<path fill-rule="evenodd" clip-rule="evenodd" d="M141.829 26.5454L145.121 26.2338C145.34 27.2727 145.724 28.0519 146.328 28.5714C146.931 29.039 147.754 29.2987 148.797 29.2987C149.894 29.2987 150.717 29.0909 151.266 28.6234C151.815 28.2078 152.089 27.6883 152.089 27.0649C152.089 26.7013 151.979 26.3896 151.76 26.1299C151.54 25.8701 151.101 25.6104 150.553 25.4545C150.169 25.2987 149.236 25.0909 147.809 24.7792C145.999 24.3636 144.737 23.8442 143.969 23.2208C142.926 22.3377 142.432 21.2987 142.432 20C142.432 19.1688 142.652 18.4416 143.146 17.7143C143.64 16.987 144.353 16.4675 145.231 16.1039C146.163 15.7403 147.261 15.5325 148.523 15.5325C150.662 15.5325 152.199 15.9481 153.296 16.8312C154.338 17.7143 154.942 18.8571 154.997 20.3636L151.595 20.5195C151.43 19.6883 151.156 19.1169 150.662 18.7532C150.169 18.3896 149.455 18.2338 148.523 18.2338C147.535 18.2338 146.767 18.4416 146.218 18.8052C145.834 19.0649 145.67 19.3766 145.67 19.7922C145.67 20.1558 145.834 20.4675 146.163 20.7792C146.602 21.1429 147.645 21.4545 149.291 21.8182C150.937 22.1818 152.144 22.5455 152.967 22.961C153.735 23.3766 154.393 23.8961 154.832 24.5714C155.271 25.2467 155.491 26.0779 155.491 27.1169C155.491 28.0519 155.216 28.8831 154.668 29.6623C154.119 30.4416 153.351 31.0649 152.418 31.4286C151.43 31.7922 150.223 32 148.742 32C146.602 32 144.956 31.5325 143.859 30.5974C142.762 29.6623 142.048 28.3117 141.829 26.5454Z" fill="#FAA74A"/>
<path d="M127.838 15.7922H124.436V31.7403H127.838V15.7922Z" fill="#FAA74A"/>
<path fill-rule="evenodd" clip-rule="evenodd" d="M27.3782 31.6883L35.8825 23.3766L28.2012 15.7922H34.0719L39.0647 20.8831L43.9478 15.7922H49.8185L42.0275 23.5325L50.5866 31.6883H44.4964L38.955 26.1818L33.4135 31.6883H27.3782Z" fill="white"/>
<path fill-rule="evenodd" clip-rule="evenodd" d="M22.8792 4.98701L39.0098 18.7013L57.4997 0.623376L56.6767 0L39.0098 14.1299L23.6473 4.36363L22.8792 4.98701Z" fill="#FAA74A"/>
</svg>
