<svg width="99" height="56" viewBox="0 0 99 56" fill="none" xmlns="http://www.w3.org/2000/svg">
<path d="M9.2832 15H4.44922V14.1357L6.2998 12.2607C6.65788 11.8962 6.95247 11.582 7.18359 11.3184C7.41471 11.0514 7.58561 10.7992 7.69629 10.5615C7.81022 10.3239 7.86719 10.0651 7.86719 9.78516C7.86719 9.4401 7.7679 9.17969 7.56934 9.00391C7.37077 8.82487 7.10872 8.73535 6.7832 8.73535C6.47396 8.73535 6.1875 8.7972 5.92383 8.9209C5.66341 9.04134 5.39323 9.21387 5.11328 9.43848L4.4834 8.68164C4.68197 8.51237 4.89355 8.35775 5.11816 8.21777C5.34603 8.0778 5.59993 7.96712 5.87988 7.88574C6.15983 7.80111 6.47884 7.75879 6.83691 7.75879C7.28939 7.75879 7.68001 7.84017 8.00879 8.00293C8.33757 8.16243 8.58984 8.38542 8.76562 8.67188C8.94466 8.95833 9.03418 9.29199 9.03418 9.67285C9.03418 10.057 8.95768 10.4118 8.80469 10.7373C8.65169 11.0628 8.43359 11.3851 8.15039 11.7041C7.86719 12.0199 7.53027 12.3633 7.13965 12.7344L5.9043 13.9404V13.9941H9.2832V15ZM14.7324 9.49219C14.7324 9.81445 14.6673 10.0944 14.5371 10.332C14.4069 10.5697 14.2279 10.765 14 10.918C13.7754 11.0677 13.515 11.1751 13.2188 11.2402V11.2744C13.7884 11.346 14.2181 11.5251 14.5078 11.8115C14.8008 12.098 14.9473 12.4772 14.9473 12.9492C14.9473 13.3626 14.848 13.7321 14.6494 14.0576C14.4508 14.3799 14.1465 14.6338 13.7363 14.8193C13.3262 15.0049 12.7988 15.0977 12.1543 15.0977C11.7669 15.0977 11.4072 15.0667 11.0752 15.0049C10.7464 14.943 10.4339 14.8438 10.1377 14.707V13.6865C10.4404 13.8363 10.7627 13.9518 11.1045 14.0332C11.4463 14.1146 11.7702 14.1553 12.0762 14.1553C12.6719 14.1553 13.0967 14.0446 13.3506 13.8232C13.6045 13.5986 13.7314 13.2894 13.7314 12.8955C13.7314 12.6416 13.6647 12.4333 13.5312 12.2705C13.401 12.1077 13.1976 11.9857 12.9209 11.9043C12.6475 11.8229 12.2943 11.7822 11.8613 11.7822H11.2314V10.8594H11.8662C12.2796 10.8594 12.6117 10.8105 12.8623 10.7129C13.113 10.612 13.2936 10.4736 13.4043 10.2979C13.5182 10.1221 13.5752 9.91699 13.5752 9.68262C13.5752 9.37663 13.4759 9.139 13.2773 8.96973C13.0788 8.7972 12.7842 8.71094 12.3936 8.71094C12.1527 8.71094 11.9329 8.73861 11.7344 8.79395C11.5391 8.84928 11.3584 8.91927 11.1924 9.00391C11.0264 9.08854 10.8685 9.17969 10.7188 9.27734L10.167 8.48145C10.4372 8.27962 10.7594 8.10872 11.1338 7.96875C11.5081 7.82878 11.9443 7.75879 12.4424 7.75879C13.1748 7.75879 13.7396 7.91667 14.1367 8.23242C14.5339 8.54492 14.7324 8.96484 14.7324 9.49219ZM20.7188 10.9033C20.7188 11.3265 20.6878 11.7415 20.626 12.1484C20.5674 12.5553 20.4632 12.9362 20.3135 13.291C20.167 13.6458 19.9635 13.96 19.7031 14.2334C19.446 14.5036 19.1204 14.7152 18.7266 14.8682C18.3327 15.0212 17.8574 15.0977 17.3008 15.0977C17.1608 15.0977 16.998 15.0895 16.8125 15.0732C16.6302 15.0602 16.4805 15.0407 16.3633 15.0146V14.0576C16.487 14.0934 16.6253 14.1227 16.7783 14.1455C16.9346 14.165 17.0892 14.1748 17.2422 14.1748C17.8444 14.1748 18.3132 14.0625 18.6484 13.8379C18.987 13.6133 19.2262 13.304 19.3662 12.9102C19.5094 12.5163 19.5908 12.0687 19.6104 11.5674H19.5518C19.4574 11.7236 19.3385 11.8669 19.1953 11.9971C19.0521 12.124 18.8747 12.2266 18.6631 12.3047C18.4515 12.3796 18.1943 12.417 17.8916 12.417C17.4814 12.417 17.1234 12.3307 16.8174 12.1582C16.5146 11.9857 16.2786 11.735 16.1094 11.4062C15.9434 11.0742 15.8604 10.6755 15.8604 10.21C15.8604 9.7054 15.9564 9.27083 16.1484 8.90625C16.3405 8.54167 16.6123 8.26172 16.9639 8.06641C17.3154 7.86784 17.7288 7.76855 18.2041 7.76855C18.5622 7.76855 18.8926 7.83366 19.1953 7.96387C19.5013 8.09082 19.7682 8.28613 19.9961 8.5498C20.224 8.81022 20.4014 9.13737 20.5283 9.53125C20.6553 9.92188 20.7188 10.3792 20.7188 10.9033ZM18.2188 8.71582C17.8574 8.71582 17.5628 8.83789 17.335 9.08203C17.1071 9.32292 16.9932 9.69401 16.9932 10.1953C16.9932 10.6022 17.0908 10.9245 17.2861 11.1621C17.4814 11.3997 17.7809 11.5186 18.1846 11.5186C18.4645 11.5186 18.7054 11.4616 18.9072 11.3477C19.1123 11.2305 19.2702 11.0824 19.3809 10.9033C19.4948 10.7243 19.5518 10.542 19.5518 10.3564C19.5518 10.1644 19.5241 9.97233 19.4688 9.78027C19.4167 9.58822 19.3353 9.41243 19.2246 9.25293C19.1139 9.09342 18.974 8.96484 18.8047 8.86719C18.6387 8.76628 18.4434 8.71582 18.2188 8.71582ZM21.8223 14.3945C21.8223 14.1276 21.8906 13.9404 22.0273 13.833C22.1673 13.7223 22.3366 13.667 22.5352 13.667C22.7337 13.667 22.903 13.7223 23.043 13.833C23.1862 13.9404 23.2578 14.1276 23.2578 14.3945C23.2578 14.6549 23.1862 14.8438 23.043 14.9609C22.903 15.0749 22.7337 15.1318 22.5352 15.1318C22.3366 15.1318 22.1673 15.0749 22.0273 14.9609C21.8906 14.8438 21.8223 14.6549 21.8223 14.3945ZM29.1953 11.4258C29.1953 12.002 29.1497 12.5179 29.0586 12.9736C28.9707 13.4261 28.8307 13.8102 28.6387 14.126C28.4466 14.4417 28.196 14.6826 27.8867 14.8486C27.5775 15.0146 27.2031 15.0977 26.7637 15.0977C26.2135 15.0977 25.7594 14.9528 25.4014 14.6631C25.0433 14.3701 24.778 13.9502 24.6055 13.4033C24.4329 12.8532 24.3467 12.194 24.3467 11.4258C24.3467 10.6576 24.4248 10 24.5811 9.45312C24.7406 8.90299 24.9977 8.48145 25.3525 8.18848C25.7074 7.89551 26.1777 7.74902 26.7637 7.74902C27.3171 7.74902 27.7728 7.89551 28.1309 8.18848C28.4922 8.47819 28.7591 8.89811 28.9316 9.44824C29.1074 9.99512 29.1953 10.6543 29.1953 11.4258ZM25.5039 11.4258C25.5039 12.028 25.543 12.5309 25.6211 12.9346C25.7025 13.3382 25.8359 13.641 26.0215 13.8428C26.207 14.0413 26.4544 14.1406 26.7637 14.1406C27.0729 14.1406 27.3203 14.0413 27.5059 13.8428C27.6914 13.6442 27.8249 13.3431 27.9062 12.9395C27.9909 12.5358 28.0332 12.0312 28.0332 11.4258C28.0332 10.8268 27.9925 10.3255 27.9111 9.92188C27.8298 9.51823 27.6963 9.21549 27.5107 9.01367C27.3252 8.80859 27.0762 8.70605 26.7637 8.70605C26.4512 8.70605 26.2021 8.80859 26.0166 9.01367C25.8343 9.21549 25.7025 9.51823 25.6211 9.92188C25.543 10.3255 25.5039 10.8268 25.5039 11.4258ZM30.2891 14.3945C30.2891 14.1276 30.3574 13.9404 30.4941 13.833C30.6341 13.7223 30.8034 13.667 31.002 13.667C31.2005 13.667 31.3698 13.7223 31.5098 13.833C31.653 13.9404 31.7246 14.1276 31.7246 14.3945C31.7246 14.6549 31.653 14.8438 31.5098 14.9609C31.3698 15.0749 31.2005 15.1318 31.002 15.1318C30.8034 15.1318 30.6341 15.0749 30.4941 14.9609C30.3574 14.8438 30.2891 14.6549 30.2891 14.3945ZM37.6621 11.4258C37.6621 12.002 37.6165 12.5179 37.5254 12.9736C37.4375 13.4261 37.2975 13.8102 37.1055 14.126C36.9134 14.4417 36.6628 14.6826 36.3535 14.8486C36.0443 15.0146 35.6699 15.0977 35.2305 15.0977C34.6803 15.0977 34.2262 14.9528 33.8682 14.6631C33.5101 14.3701 33.2448 13.9502 33.0723 13.4033C32.8997 12.8532 32.8135 12.194 32.8135 11.4258C32.8135 10.6576 32.8916 10 33.0479 9.45312C33.2074 8.90299 33.4645 8.48145 33.8193 8.18848C34.1742 7.89551 34.6445 7.74902 35.2305 7.74902C35.7839 7.74902 36.2396 7.89551 36.5977 8.18848C36.959 8.47819 37.2259 8.89811 37.3984 9.44824C37.5742 9.99512 37.6621 10.6543 37.6621 11.4258ZM33.9707 11.4258C33.9707 12.028 34.0098 12.5309 34.0879 12.9346C34.1693 13.3382 34.3027 13.641 34.4883 13.8428C34.6738 14.0413 34.9212 14.1406 35.2305 14.1406C35.5397 14.1406 35.7871 14.0413 35.9727 13.8428C36.1582 13.6442 36.2917 13.3431 36.373 12.9395C36.4577 12.5358 36.5 12.0312 36.5 11.4258C36.5 10.8268 36.4593 10.3255 36.3779 9.92188C36.2965 9.51823 36.1631 9.21549 35.9775 9.01367C35.792 8.80859 35.543 8.70605 35.2305 8.70605C34.918 8.70605 34.6689 8.80859 34.4834 9.01367C34.3011 9.21549 34.1693 9.51823 34.0879 9.92188C34.0098 10.3255 33.9707 10.8268 33.9707 11.4258ZM38.7559 14.3945C38.7559 14.1276 38.8242 13.9404 38.9609 13.833C39.1009 13.7223 39.2702 13.667 39.4688 13.667C39.6673 13.667 39.8366 13.7223 39.9766 13.833C40.1198 13.9404 40.1914 14.1276 40.1914 14.3945C40.1914 14.6549 40.1198 14.8438 39.9766 14.9609C39.8366 15.0749 39.6673 15.1318 39.4688 15.1318C39.2702 15.1318 39.1009 15.0749 38.9609 14.9609C38.8242 14.8438 38.7559 14.6549 38.7559 14.3945ZM46.3877 13.4326H45.4209V15H44.2881V13.4326H41.041V12.5635L44.3027 7.8418H45.4209V12.4805H46.3877V13.4326ZM44.2881 12.4805V10.708C44.2881 10.5615 44.2897 10.4134 44.293 10.2637C44.2995 10.1107 44.306 9.96419 44.3125 9.82422C44.319 9.68424 44.3255 9.55566 44.332 9.43848C44.3385 9.31803 44.3434 9.21875 44.3467 9.14062H44.3076C44.2458 9.27083 44.1774 9.4043 44.1025 9.54102C44.0277 9.67448 43.9479 9.80469 43.8633 9.93164L42.1055 12.4805H44.2881ZM47.2227 14.3945C47.2227 14.1276 47.291 13.9404 47.4277 13.833C47.5677 13.7223 47.737 13.667 47.9355 13.667C48.1341 13.667 48.3034 13.7223 48.4434 13.833C48.5866 13.9404 48.6582 14.1276 48.6582 14.3945C48.6582 14.6549 48.5866 14.8438 48.4434 14.9609C48.3034 15.0749 48.1341 15.1318 47.9355 15.1318C47.737 15.1318 47.5677 15.0749 47.4277 14.9609C47.291 14.8438 47.2227 14.6549 47.2227 14.3945ZM47.2227 10.2148C47.2227 9.94466 47.291 9.75423 47.4277 9.64355C47.5677 9.53288 47.737 9.47754 47.9355 9.47754C48.1341 9.47754 48.3034 9.53288 48.4434 9.64355C48.5866 9.75423 48.6582 9.94466 48.6582 10.2148C48.6582 10.472 48.5866 10.6592 48.4434 10.7764C48.3034 10.8903 48.1341 10.9473 47.9355 10.9473C47.737 10.9473 47.5677 10.8903 47.4277 10.7764C47.291 10.6592 47.2227 10.472 47.2227 10.2148ZM53.1357 15H51.9834V10.4053C51.9834 10.2523 51.985 10.0993 51.9883 9.94629C51.9915 9.79329 51.9948 9.64355 51.998 9.49707C52.0046 9.35059 52.0127 9.21061 52.0225 9.07715C51.9541 9.15202 51.8695 9.2334 51.7686 9.32129C51.6709 9.40918 51.5667 9.50033 51.4561 9.59473L50.6357 10.249L50.0596 9.52148L52.1787 7.86133H53.1357V15ZM60.3184 15H55.4844V14.1357L57.335 12.2607C57.693 11.8962 57.9876 11.582 58.2188 11.3184C58.4499 11.0514 58.6208 10.7992 58.7314 10.5615C58.8454 10.3239 58.9023 10.0651 58.9023 9.78516C58.9023 9.4401 58.8031 9.17969 58.6045 9.00391C58.4059 8.82487 58.1439 8.73535 57.8184 8.73535C57.5091 8.73535 57.2227 8.7972 56.959 8.9209C56.6986 9.04134 56.4284 9.21387 56.1484 9.43848L55.5186 8.68164C55.7171 8.51237 55.9287 8.35775 56.1533 8.21777C56.3812 8.0778 56.6351 7.96712 56.915 7.88574C57.195 7.80111 57.514 7.75879 57.8721 7.75879C58.3245 7.75879 58.7152 7.84017 59.0439 8.00293C59.3727 8.16243 59.625 8.38542 59.8008 8.67188C59.9798 8.95833 60.0693 9.29199 60.0693 9.67285C60.0693 10.057 59.9928 10.4118 59.8398 10.7373C59.6868 11.0628 59.4688 11.3851 59.1855 11.7041C58.9023 12.0199 58.5654 12.3633 58.1748 12.7344L56.9395 13.9404V13.9941H60.3184V15ZM65.7676 9.49219C65.7676 9.81445 65.7025 10.0944 65.5723 10.332C65.4421 10.5697 65.263 10.765 65.0352 10.918C64.8105 11.0677 64.5501 11.1751 64.2539 11.2402V11.2744C64.8236 11.346 65.2533 11.5251 65.543 11.8115C65.8359 12.098 65.9824 12.4772 65.9824 12.9492C65.9824 13.3626 65.8831 13.7321 65.6846 14.0576C65.486 14.3799 65.1816 14.6338 64.7715 14.8193C64.3613 15.0049 63.834 15.0977 63.1895 15.0977C62.8021 15.0977 62.4424 15.0667 62.1104 15.0049C61.7816 14.943 61.4691 14.8438 61.1729 14.707V13.6865C61.4756 13.8363 61.7979 13.9518 62.1396 14.0332C62.4814 14.1146 62.8053 14.1553 63.1113 14.1553C63.707 14.1553 64.1318 14.0446 64.3857 13.8232C64.6396 13.5986 64.7666 13.2894 64.7666 12.8955C64.7666 12.6416 64.6999 12.4333 64.5664 12.2705C64.4362 12.1077 64.2327 11.9857 63.9561 11.9043C63.6826 11.8229 63.3294 11.7822 62.8965 11.7822H62.2666V10.8594H62.9014C63.3148 10.8594 63.6468 10.8105 63.8975 10.7129C64.1481 10.612 64.3288 10.4736 64.4395 10.2979C64.5534 10.1221 64.6104 9.91699 64.6104 9.68262C64.6104 9.37663 64.5111 9.139 64.3125 8.96973C64.1139 8.7972 63.8193 8.71094 63.4287 8.71094C63.1878 8.71094 62.9681 8.73861 62.7695 8.79395C62.5742 8.84928 62.3936 8.91927 62.2275 9.00391C62.0615 9.08854 61.9036 9.17969 61.7539 9.27734L61.2021 8.48145C61.4723 8.27962 61.7946 8.10872 62.1689 7.96875C62.5433 7.82878 62.9795 7.75879 63.4775 7.75879C64.21 7.75879 64.7747 7.91667 65.1719 8.23242C65.569 8.54492 65.7676 8.96484 65.7676 9.49219ZM72.0225 13.4326H71.0557V15H69.9229V13.4326H66.6758V12.5635L69.9375 7.8418H71.0557V12.4805H72.0225V13.4326ZM69.9229 12.4805V10.708C69.9229 10.5615 69.9245 10.4134 69.9277 10.2637C69.9342 10.1107 69.9408 9.96419 69.9473 9.82422C69.9538 9.68424 69.9603 9.55566 69.9668 9.43848C69.9733 9.31803 69.9782 9.21875 69.9814 9.14062H69.9424C69.8805 9.27083 69.8122 9.4043 69.7373 9.54102C69.6624 9.67448 69.5827 9.80469 69.498 9.93164L67.7402 12.4805H69.9229Z" fill="#367BF5"/>
<path d="M7.5918 29.6665H15.0094H28.0196L31.0299 33.6665L36.0401 29.6665L46.0503 29.6665L55.0605 29.6665H62.7029L71.0809 29.6665L79.0912 29.6665L87.1014 29.6665L94.4066 29.6665" stroke="#2FA84F" stroke-linecap="round"/>
<path d="M8.53793 47H7.27035V41.9458C7.27035 41.7775 7.27214 41.6092 7.27572 41.4409C7.2793 41.2726 7.28288 41.1079 7.28646 40.9468C7.29363 40.7856 7.30258 40.6317 7.31332 40.4849C7.23812 40.5672 7.14503 40.6567 7.03402 40.7534C6.9266 40.8501 6.81202 40.9504 6.69027 41.0542L5.78793 41.7739L5.15414 40.9736L7.4852 39.1475H8.53793V47ZM16.2188 47H10.9014V46.0493L12.9371 43.9868C13.331 43.5858 13.655 43.2402 13.9092 42.9502C14.1635 42.6566 14.3515 42.3791 14.4732 42.1177C14.5985 41.8563 14.6612 41.5716 14.6612 41.2637C14.6612 40.8841 14.552 40.5977 14.3336 40.4043C14.1151 40.2074 13.8269 40.1089 13.4688 40.1089C13.1286 40.1089 12.8135 40.1769 12.5235 40.313C12.237 40.4455 11.9398 40.6353 11.6319 40.8823L10.939 40.0498C11.1574 39.8636 11.3902 39.6935 11.6373 39.5396C11.8879 39.3856 12.1672 39.2638 12.4752 39.1743C12.7831 39.0812 13.134 39.0347 13.5279 39.0347C14.0256 39.0347 14.4553 39.1242 14.817 39.3032C15.1786 39.4787 15.4561 39.724 15.6495 40.0391C15.8464 40.3542 15.9449 40.7212 15.9449 41.1401C15.9449 41.5627 15.8607 41.953 15.6924 42.311C15.5241 42.6691 15.2842 43.0236 14.9727 43.3745C14.6612 43.7218 14.2906 44.0996 13.8609 44.5078L12.502 45.8345V45.8936H16.2188V47ZM23.54 47L21.2788 40.4419H21.2305C21.2412 40.5887 21.2537 40.7892 21.2681 41.0435C21.2824 41.2977 21.2949 41.5698 21.3057 41.8599C21.3164 42.1499 21.3218 42.4274 21.3218 42.6924V47H20.1509V39.1475H21.9609L24.1362 45.4155H24.1685L26.4189 39.1475H28.2236V47H26.9937V42.6279C26.9937 42.388 26.9972 42.1284 27.0044 41.8491C27.0151 41.5698 27.0259 41.3049 27.0366 41.0542C27.0509 40.8035 27.0617 40.603 27.0688 40.4526H27.0259L24.6787 47H23.54ZM31.2048 38.6426V40.6567C31.2048 40.8895 31.1976 41.1187 31.1833 41.3442C31.1726 41.5662 31.1618 41.7399 31.1511 41.8652H31.2048C31.3659 41.6074 31.5897 41.3908 31.8762 41.2153C32.1662 41.0363 32.5368 40.9468 32.988 40.9468C33.6934 40.9468 34.261 41.2064 34.6906 41.7256C35.1203 42.2412 35.3352 43.0057 35.3352 44.019C35.3352 44.6922 35.2367 45.258 35.0398 45.7163C34.8428 46.1746 34.5653 46.522 34.2072 46.7583C33.8528 46.991 33.4356 47.1074 32.9558 47.1074C32.5046 47.1074 32.1394 47.0251 31.8601 46.8604C31.5844 46.6921 31.3677 46.4969 31.2102 46.2749H31.1189L30.8879 47H29.9426V38.6426H31.2048ZM32.655 41.9727C32.2969 41.9727 32.0123 42.0443 31.801 42.1875C31.5933 42.3307 31.4429 42.5456 31.3498 42.832C31.2567 43.1149 31.2084 43.4748 31.2048 43.9116V44.0244C31.2048 44.6868 31.3086 45.1935 31.5163 45.5444C31.7276 45.8953 32.1107 46.0708 32.6657 46.0708C33.1062 46.0708 33.4446 45.8936 33.6809 45.5391C33.9172 45.181 34.0354 44.6689 34.0354 44.0029C34.0354 43.3298 33.9172 42.8231 33.6809 42.4829C33.4481 42.1427 33.1062 41.9727 32.655 41.9727ZM39.6269 40.9414C40.3323 40.9414 40.8981 41.1992 41.3242 41.7148C41.7538 42.2305 41.9687 42.9967 41.9687 44.0137C41.9687 44.6868 41.8684 45.2544 41.6679 45.7163C41.471 46.1746 41.1935 46.522 40.8354 46.7583C40.4809 46.991 40.0673 47.1074 39.5947 47.1074C39.2939 47.1074 39.0325 47.068 38.8105 46.9893C38.5885 46.9105 38.3987 46.8084 38.2412 46.6831C38.0836 46.5542 37.9511 46.4146 37.8437 46.2642H37.7685C37.7864 46.4074 37.8025 46.5667 37.8168 46.7422C37.8347 46.9141 37.8437 47.0716 37.8437 47.2148V49.6372H36.5761V41.0542H37.6074L37.7846 41.876H37.8437C37.9547 41.7077 38.089 41.5519 38.2465 41.4087C38.4077 41.2655 38.601 41.1527 38.8266 41.0703C39.0558 40.9844 39.3225 40.9414 39.6269 40.9414ZM39.2885 41.9727C38.9412 41.9727 38.6619 42.0425 38.4506 42.1821C38.2429 42.3182 38.0908 42.5241 37.9941 42.7998C37.901 43.0755 37.8509 43.4211 37.8437 43.8364V44.0137C37.8437 44.4541 37.8884 44.8283 37.978 45.1362C38.0711 45.4406 38.2232 45.6733 38.4345 45.8345C38.6494 45.992 38.9394 46.0708 39.3046 46.0708C39.6126 46.0708 39.8668 45.9867 40.0673 45.8184C40.2714 45.6501 40.4236 45.4102 40.5239 45.0986C40.6241 44.7871 40.6743 44.4201 40.6743 43.9976C40.6743 43.3566 40.5597 42.8589 40.3305 42.5044C40.1049 42.1499 39.7576 41.9727 39.2885 41.9727ZM47.2057 45.3027C47.2057 45.693 47.1108 46.0225 46.9211 46.291C46.7313 46.5596 46.4538 46.7637 46.0885 46.9033C45.7269 47.0394 45.2829 47.1074 44.7565 47.1074C44.3411 47.1074 43.9831 47.077 43.6823 47.0161C43.3851 46.9588 43.104 46.8693 42.839 46.7476V45.6572C43.1219 45.7897 43.4388 45.9043 43.7897 46.001C44.1442 46.0977 44.479 46.146 44.7941 46.146C45.2095 46.146 45.5085 46.0815 45.6911 45.9526C45.8737 45.8201 45.965 45.6447 45.965 45.4263C45.965 45.2974 45.9274 45.1828 45.8522 45.0825C45.7806 44.9787 45.6445 44.873 45.444 44.7656C45.2471 44.6546 44.957 44.5221 44.5739 44.3682C44.1979 44.2178 43.881 44.0674 43.6232 43.917C43.3654 43.7666 43.1702 43.5858 43.0378 43.3745C42.9053 43.1597 42.839 42.8857 42.839 42.5527C42.839 42.0264 43.0467 41.6271 43.4621 41.355C43.881 41.0793 44.4342 40.9414 45.1217 40.9414C45.487 40.9414 45.8307 40.979 46.153 41.0542C46.4788 41.1258 46.7975 41.2314 47.109 41.3711L46.7116 42.3218C46.443 42.2036 46.1727 42.1069 45.9005 42.0317C45.632 41.953 45.3581 41.9136 45.0788 41.9136C44.7529 41.9136 44.5041 41.9637 44.3322 42.064C44.1639 42.1642 44.0797 42.3075 44.0797 42.4937C44.0797 42.6333 44.1209 42.7515 44.2033 42.8481C44.2856 42.9448 44.4271 43.0415 44.6276 43.1382C44.8317 43.2349 45.1146 43.3548 45.4762 43.498C45.8307 43.6341 46.1369 43.7773 46.3947 43.9277C46.6561 44.0745 46.8566 44.2554 46.9963 44.4702C47.1359 44.6851 47.2057 44.9626 47.2057 45.3027Z" fill="#2FA84F"/>
</svg>
