<svg width="100" height="56" viewBox="0 0 100 56" fill="none" xmlns="http://www.w3.org/2000/svg">
<path d="M9.2832 15H4.44922V14.1357L6.2998 12.2607C6.65788 11.8962 6.95247 11.582 7.18359 11.3184C7.41471 11.0514 7.58561 10.7992 7.69629 10.5615C7.81022 10.3239 7.86719 10.0651 7.86719 9.78516C7.86719 9.4401 7.7679 9.17969 7.56934 9.00391C7.37077 8.82487 7.10872 8.73535 6.7832 8.73535C6.47396 8.73535 6.1875 8.7972 5.92383 8.9209C5.66341 9.04134 5.39323 9.21387 5.11328 9.43848L4.4834 8.68164C4.68197 8.51237 4.89355 8.35775 5.11816 8.21777C5.34603 8.0778 5.59993 7.96712 5.87988 7.88574C6.15983 7.80111 6.47884 7.75879 6.83691 7.75879C7.28939 7.75879 7.68001 7.84017 8.00879 8.00293C8.33757 8.16243 8.58984 8.38542 8.76562 8.67188C8.94466 8.95833 9.03418 9.29199 9.03418 9.67285C9.03418 10.057 8.95768 10.4118 8.80469 10.7373C8.65169 11.0628 8.43359 11.3851 8.15039 11.7041C7.86719 12.0199 7.53027 12.3633 7.13965 12.7344L5.9043 13.9404V13.9941H9.2832V15ZM14.7324 9.49219C14.7324 9.81445 14.6673 10.0944 14.5371 10.332C14.4069 10.5697 14.2279 10.765 14 10.918C13.7754 11.0677 13.515 11.1751 13.2188 11.2402V11.2744C13.7884 11.346 14.2181 11.5251 14.5078 11.8115C14.8008 12.098 14.9473 12.4772 14.9473 12.9492C14.9473 13.3626 14.848 13.7321 14.6494 14.0576C14.4508 14.3799 14.1465 14.6338 13.7363 14.8193C13.3262 15.0049 12.7988 15.0977 12.1543 15.0977C11.7669 15.0977 11.4072 15.0667 11.0752 15.0049C10.7464 14.943 10.4339 14.8438 10.1377 14.707V13.6865C10.4404 13.8363 10.7627 13.9518 11.1045 14.0332C11.4463 14.1146 11.7702 14.1553 12.0762 14.1553C12.6719 14.1553 13.0967 14.0446 13.3506 13.8232C13.6045 13.5986 13.7314 13.2894 13.7314 12.8955C13.7314 12.6416 13.6647 12.4333 13.5312 12.2705C13.401 12.1077 13.1976 11.9857 12.9209 11.9043C12.6475 11.8229 12.2943 11.7822 11.8613 11.7822H11.2314V10.8594H11.8662C12.2796 10.8594 12.6117 10.8105 12.8623 10.7129C13.113 10.612 13.2936 10.4736 13.4043 10.2979C13.5182 10.1221 13.5752 9.91699 13.5752 9.68262C13.5752 9.37663 13.4759 9.139 13.2773 8.96973C13.0788 8.7972 12.7842 8.71094 12.3936 8.71094C12.1527 8.71094 11.9329 8.73861 11.7344 8.79395C11.5391 8.84928 11.3584 8.91927 11.1924 9.00391C11.0264 9.08854 10.8685 9.17969 10.7188 9.27734L10.167 8.48145C10.4372 8.27962 10.7594 8.10872 11.1338 7.96875C11.5081 7.82878 11.9443 7.75879 12.4424 7.75879C13.1748 7.75879 13.7396 7.91667 14.1367 8.23242C14.5339 8.54492 14.7324 8.96484 14.7324 9.49219ZM20.7188 10.9033C20.7188 11.3265 20.6878 11.7415 20.626 12.1484C20.5674 12.5553 20.4632 12.9362 20.3135 13.291C20.167 13.6458 19.9635 13.96 19.7031 14.2334C19.446 14.5036 19.1204 14.7152 18.7266 14.8682C18.3327 15.0212 17.8574 15.0977 17.3008 15.0977C17.1608 15.0977 16.998 15.0895 16.8125 15.0732C16.6302 15.0602 16.4805 15.0407 16.3633 15.0146V14.0576C16.487 14.0934 16.6253 14.1227 16.7783 14.1455C16.9346 14.165 17.0892 14.1748 17.2422 14.1748C17.8444 14.1748 18.3132 14.0625 18.6484 13.8379C18.987 13.6133 19.2262 13.304 19.3662 12.9102C19.5094 12.5163 19.5908 12.0687 19.6104 11.5674H19.5518C19.4574 11.7236 19.3385 11.8669 19.1953 11.9971C19.0521 12.124 18.8747 12.2266 18.6631 12.3047C18.4515 12.3796 18.1943 12.417 17.8916 12.417C17.4814 12.417 17.1234 12.3307 16.8174 12.1582C16.5146 11.9857 16.2786 11.735 16.1094 11.4062C15.9434 11.0742 15.8604 10.6755 15.8604 10.21C15.8604 9.7054 15.9564 9.27083 16.1484 8.90625C16.3405 8.54167 16.6123 8.26172 16.9639 8.06641C17.3154 7.86784 17.7288 7.76855 18.2041 7.76855C18.5622 7.76855 18.8926 7.83366 19.1953 7.96387C19.5013 8.09082 19.7682 8.28613 19.9961 8.5498C20.224 8.81022 20.4014 9.13737 20.5283 9.53125C20.6553 9.92188 20.7188 10.3792 20.7188 10.9033ZM18.2188 8.71582C17.8574 8.71582 17.5628 8.83789 17.335 9.08203C17.1071 9.32292 16.9932 9.69401 16.9932 10.1953C16.9932 10.6022 17.0908 10.9245 17.2861 11.1621C17.4814 11.3997 17.7809 11.5186 18.1846 11.5186C18.4645 11.5186 18.7054 11.4616 18.9072 11.3477C19.1123 11.2305 19.2702 11.0824 19.3809 10.9033C19.4948 10.7243 19.5518 10.542 19.5518 10.3564C19.5518 10.1644 19.5241 9.97233 19.4688 9.78027C19.4167 9.58822 19.3353 9.41243 19.2246 9.25293C19.1139 9.09342 18.974 8.96484 18.8047 8.86719C18.6387 8.76628 18.4434 8.71582 18.2188 8.71582ZM21.8223 14.3945C21.8223 14.1276 21.8906 13.9404 22.0273 13.833C22.1673 13.7223 22.3366 13.667 22.5352 13.667C22.7337 13.667 22.903 13.7223 23.043 13.833C23.1862 13.9404 23.2578 14.1276 23.2578 14.3945C23.2578 14.6549 23.1862 14.8438 23.043 14.9609C22.903 15.0749 22.7337 15.1318 22.5352 15.1318C22.3366 15.1318 22.1673 15.0749 22.0273 14.9609C21.8906 14.8438 21.8223 14.6549 21.8223 14.3945ZM29.1953 11.4258C29.1953 12.002 29.1497 12.5179 29.0586 12.9736C28.9707 13.4261 28.8307 13.8102 28.6387 14.126C28.4466 14.4417 28.196 14.6826 27.8867 14.8486C27.5775 15.0146 27.2031 15.0977 26.7637 15.0977C26.2135 15.0977 25.7594 14.9528 25.4014 14.6631C25.0433 14.3701 24.778 13.9502 24.6055 13.4033C24.4329 12.8532 24.3467 12.194 24.3467 11.4258C24.3467 10.6576 24.4248 10 24.5811 9.45312C24.7406 8.90299 24.9977 8.48145 25.3525 8.18848C25.7074 7.89551 26.1777 7.74902 26.7637 7.74902C27.3171 7.74902 27.7728 7.89551 28.1309 8.18848C28.4922 8.47819 28.7591 8.89811 28.9316 9.44824C29.1074 9.99512 29.1953 10.6543 29.1953 11.4258ZM25.5039 11.4258C25.5039 12.028 25.543 12.5309 25.6211 12.9346C25.7025 13.3382 25.8359 13.641 26.0215 13.8428C26.207 14.0413 26.4544 14.1406 26.7637 14.1406C27.0729 14.1406 27.3203 14.0413 27.5059 13.8428C27.6914 13.6442 27.8249 13.3431 27.9062 12.9395C27.9909 12.5358 28.0332 12.0312 28.0332 11.4258C28.0332 10.8268 27.9925 10.3255 27.9111 9.92188C27.8298 9.51823 27.6963 9.21549 27.5107 9.01367C27.3252 8.80859 27.0762 8.70605 26.7637 8.70605C26.4512 8.70605 26.2021 8.80859 26.0166 9.01367C25.8343 9.21549 25.7025 9.51823 25.6211 9.92188C25.543 10.3255 25.5039 10.8268 25.5039 11.4258ZM30.2891 14.3945C30.2891 14.1276 30.3574 13.9404 30.4941 13.833C30.6341 13.7223 30.8034 13.667 31.002 13.667C31.2005 13.667 31.3698 13.7223 31.5098 13.833C31.653 13.9404 31.7246 14.1276 31.7246 14.3945C31.7246 14.6549 31.653 14.8438 31.5098 14.9609C31.3698 15.0749 31.2005 15.1318 31.002 15.1318C30.8034 15.1318 30.6341 15.0749 30.4941 14.9609C30.3574 14.8438 30.2891 14.6549 30.2891 14.3945ZM37.6621 11.4258C37.6621 12.002 37.6165 12.5179 37.5254 12.9736C37.4375 13.4261 37.2975 13.8102 37.1055 14.126C36.9134 14.4417 36.6628 14.6826 36.3535 14.8486C36.0443 15.0146 35.6699 15.0977 35.2305 15.0977C34.6803 15.0977 34.2262 14.9528 33.8682 14.6631C33.5101 14.3701 33.2448 13.9502 33.0723 13.4033C32.8997 12.8532 32.8135 12.194 32.8135 11.4258C32.8135 10.6576 32.8916 10 33.0479 9.45312C33.2074 8.90299 33.4645 8.48145 33.8193 8.18848C34.1742 7.89551 34.6445 7.74902 35.2305 7.74902C35.7839 7.74902 36.2396 7.89551 36.5977 8.18848C36.959 8.47819 37.2259 8.89811 37.3984 9.44824C37.5742 9.99512 37.6621 10.6543 37.6621 11.4258ZM33.9707 11.4258C33.9707 12.028 34.0098 12.5309 34.0879 12.9346C34.1693 13.3382 34.3027 13.641 34.4883 13.8428C34.6738 14.0413 34.9212 14.1406 35.2305 14.1406C35.5397 14.1406 35.7871 14.0413 35.9727 13.8428C36.1582 13.6442 36.2917 13.3431 36.373 12.9395C36.4577 12.5358 36.5 12.0312 36.5 11.4258C36.5 10.8268 36.4593 10.3255 36.3779 9.92188C36.2965 9.51823 36.1631 9.21549 35.9775 9.01367C35.792 8.80859 35.543 8.70605 35.2305 8.70605C34.918 8.70605 34.6689 8.80859 34.4834 9.01367C34.3011 9.21549 34.1693 9.51823 34.0879 9.92188C34.0098 10.3255 33.9707 10.8268 33.9707 11.4258ZM38.7559 14.3945C38.7559 14.1276 38.8242 13.9404 38.9609 13.833C39.1009 13.7223 39.2702 13.667 39.4688 13.667C39.6673 13.667 39.8366 13.7223 39.9766 13.833C40.1198 13.9404 40.1914 14.1276 40.1914 14.3945C40.1914 14.6549 40.1198 14.8438 39.9766 14.9609C39.8366 15.0749 39.6673 15.1318 39.4688 15.1318C39.2702 15.1318 39.1009 15.0749 38.9609 14.9609C38.8242 14.8438 38.7559 14.6549 38.7559 14.3945ZM46.3877 13.4326H45.4209V15H44.2881V13.4326H41.041V12.5635L44.3027 7.8418H45.4209V12.4805H46.3877V13.4326ZM44.2881 12.4805V10.708C44.2881 10.5615 44.2897 10.4134 44.293 10.2637C44.2995 10.1107 44.306 9.96419 44.3125 9.82422C44.319 9.68424 44.3255 9.55566 44.332 9.43848C44.3385 9.31803 44.3434 9.21875 44.3467 9.14062H44.3076C44.2458 9.27083 44.1774 9.4043 44.1025 9.54102C44.0277 9.67448 43.9479 9.80469 43.8633 9.93164L42.1055 12.4805H44.2881ZM47.2227 14.3945C47.2227 14.1276 47.291 13.9404 47.4277 13.833C47.5677 13.7223 47.737 13.667 47.9355 13.667C48.1341 13.667 48.3034 13.7223 48.4434 13.833C48.5866 13.9404 48.6582 14.1276 48.6582 14.3945C48.6582 14.6549 48.5866 14.8438 48.4434 14.9609C48.3034 15.0749 48.1341 15.1318 47.9355 15.1318C47.737 15.1318 47.5677 15.0749 47.4277 14.9609C47.291 14.8438 47.2227 14.6549 47.2227 14.3945ZM47.2227 10.2148C47.2227 9.94466 47.291 9.75423 47.4277 9.64355C47.5677 9.53288 47.737 9.47754 47.9355 9.47754C48.1341 9.47754 48.3034 9.53288 48.4434 9.64355C48.5866 9.75423 48.6582 9.94466 48.6582 10.2148C48.6582 10.472 48.5866 10.6592 48.4434 10.7764C48.3034 10.8903 48.1341 10.9473 47.9355 10.9473C47.737 10.9473 47.5677 10.8903 47.4277 10.7764C47.291 10.6592 47.2227 10.472 47.2227 10.2148ZM53.1357 15H51.9834V10.4053C51.9834 10.2523 51.985 10.0993 51.9883 9.94629C51.9915 9.79329 51.9948 9.64355 51.998 9.49707C52.0046 9.35059 52.0127 9.21061 52.0225 9.07715C51.9541 9.15202 51.8695 9.2334 51.7686 9.32129C51.6709 9.40918 51.5667 9.50033 51.4561 9.59473L50.6357 10.249L50.0596 9.52148L52.1787 7.86133H53.1357V15ZM60.3184 15H55.4844V14.1357L57.335 12.2607C57.693 11.8962 57.9876 11.582 58.2188 11.3184C58.4499 11.0514 58.6208 10.7992 58.7314 10.5615C58.8454 10.3239 58.9023 10.0651 58.9023 9.78516C58.9023 9.4401 58.8031 9.17969 58.6045 9.00391C58.4059 8.82487 58.1439 8.73535 57.8184 8.73535C57.5091 8.73535 57.2227 8.7972 56.959 8.9209C56.6986 9.04134 56.4284 9.21387 56.1484 9.43848L55.5186 8.68164C55.7171 8.51237 55.9287 8.35775 56.1533 8.21777C56.3812 8.0778 56.6351 7.96712 56.915 7.88574C57.195 7.80111 57.514 7.75879 57.8721 7.75879C58.3245 7.75879 58.7152 7.84017 59.0439 8.00293C59.3727 8.16243 59.625 8.38542 59.8008 8.67188C59.9798 8.95833 60.0693 9.29199 60.0693 9.67285C60.0693 10.057 59.9928 10.4118 59.8398 10.7373C59.6868 11.0628 59.4688 11.3851 59.1855 11.7041C58.9023 12.0199 58.5654 12.3633 58.1748 12.7344L56.9395 13.9404V13.9941H60.3184V15ZM65.7676 9.49219C65.7676 9.81445 65.7025 10.0944 65.5723 10.332C65.4421 10.5697 65.263 10.765 65.0352 10.918C64.8105 11.0677 64.5501 11.1751 64.2539 11.2402V11.2744C64.8236 11.346 65.2533 11.5251 65.543 11.8115C65.8359 12.098 65.9824 12.4772 65.9824 12.9492C65.9824 13.3626 65.8831 13.7321 65.6846 14.0576C65.486 14.3799 65.1816 14.6338 64.7715 14.8193C64.3613 15.0049 63.834 15.0977 63.1895 15.0977C62.8021 15.0977 62.4424 15.0667 62.1104 15.0049C61.7816 14.943 61.4691 14.8438 61.1729 14.707V13.6865C61.4756 13.8363 61.7979 13.9518 62.1396 14.0332C62.4814 14.1146 62.8053 14.1553 63.1113 14.1553C63.707 14.1553 64.1318 14.0446 64.3857 13.8232C64.6396 13.5986 64.7666 13.2894 64.7666 12.8955C64.7666 12.6416 64.6999 12.4333 64.5664 12.2705C64.4362 12.1077 64.2327 11.9857 63.9561 11.9043C63.6826 11.8229 63.3294 11.7822 62.8965 11.7822H62.2666V10.8594H62.9014C63.3148 10.8594 63.6468 10.8105 63.8975 10.7129C64.1481 10.612 64.3288 10.4736 64.4395 10.2979C64.5534 10.1221 64.6104 9.91699 64.6104 9.68262C64.6104 9.37663 64.5111 9.139 64.3125 8.96973C64.1139 8.7972 63.8193 8.71094 63.4287 8.71094C63.1878 8.71094 62.9681 8.73861 62.7695 8.79395C62.5742 8.84928 62.3936 8.91927 62.2275 9.00391C62.0615 9.08854 61.9036 9.17969 61.7539 9.27734L61.2021 8.48145C61.4723 8.27962 61.7946 8.10872 62.1689 7.96875C62.5433 7.82878 62.9795 7.75879 63.4775 7.75879C64.21 7.75879 64.7747 7.91667 65.1719 8.23242C65.569 8.54492 65.7676 8.96484 65.7676 9.49219ZM72.0225 13.4326H71.0557V15H69.9229V13.4326H66.6758V12.5635L69.9375 7.8418H71.0557V12.4805H72.0225V13.4326ZM69.9229 12.4805V10.708C69.9229 10.5615 69.9245 10.4134 69.9277 10.2637C69.9342 10.1107 69.9408 9.96419 69.9473 9.82422C69.9538 9.68424 69.9603 9.55566 69.9668 9.43848C69.9733 9.31803 69.9782 9.21875 69.9814 9.14062H69.9424C69.8805 9.27083 69.8122 9.4043 69.7373 9.54102C69.6624 9.67448 69.5827 9.80469 69.498 9.93164L67.7402 12.4805H69.9229Z" fill="#367BF5"/>
<path d="M8.5918 29.6665H16.0094H24.0196L32.0298 31.6665L40.0401 29.6665L48.0503 29.6665L56.0605 29.6665H63.7029L72.0809 30.6665L80.0912 28.6665L88.1014 29.6665L95.4066 29.6665" stroke="#EFC42B" stroke-linecap="round"/>
<path d="M9.94383 40.9414C9.94383 41.2959 9.87221 41.6038 9.72898 41.8652C9.58576 42.1266 9.38882 42.3415 9.13816 42.5098C8.89109 42.6745 8.60464 42.7926 8.27879 42.8643V42.9019C8.90542 42.9806 9.37807 43.1776 9.69676 43.4927C10.019 43.8078 10.1802 44.2249 10.1802 44.7441C10.1802 45.1989 10.0709 45.6053 9.85252 45.9634C9.6341 46.3179 9.2993 46.5972 8.84813 46.8013C8.39695 47.0054 7.81688 47.1074 7.10789 47.1074C6.68178 47.1074 6.28611 47.0734 5.92088 47.0054C5.55923 46.9373 5.21548 46.8281 4.88963 46.6777V45.5552C5.22264 45.7199 5.57713 45.847 5.95311 45.9365C6.32908 46.026 6.68537 46.0708 7.02195 46.0708C7.67723 46.0708 8.14451 45.9491 8.42381 45.7056C8.70311 45.4585 8.84275 45.1183 8.84275 44.6851C8.84275 44.4058 8.76935 44.1766 8.62254 43.9976C8.47931 43.8185 8.25551 43.6842 7.95115 43.5947C7.65037 43.5052 7.26186 43.4604 6.78563 43.4604H6.09275V42.4453H6.791C7.24575 42.4453 7.61098 42.3916 7.8867 42.2842C8.16242 42.1732 8.36115 42.021 8.48289 41.8276C8.60822 41.6343 8.67088 41.4087 8.67088 41.1509C8.67088 40.8143 8.56167 40.5529 8.34324 40.3667C8.12482 40.1769 7.80076 40.082 7.37107 40.082C7.1061 40.082 6.8644 40.1125 6.64598 40.1733C6.43113 40.2342 6.2324 40.3112 6.04979 40.4043C5.86717 40.4974 5.6935 40.5977 5.52879 40.7051L4.92186 39.8296C5.21906 39.6076 5.57355 39.4196 5.98533 39.2656C6.39712 39.1117 6.87693 39.0347 7.42479 39.0347C8.23045 39.0347 8.85171 39.2083 9.28856 39.5557C9.7254 39.8994 9.94383 40.3613 9.94383 40.9414ZM11.2277 46.334C11.2277 46.0404 11.3029 45.8345 11.4533 45.7163C11.6073 45.5946 11.7935 45.5337 12.0119 45.5337C12.2303 45.5337 12.4165 45.5946 12.5705 45.7163C12.7281 45.8345 12.8068 46.0404 12.8068 46.334C12.8068 46.6204 12.7281 46.8281 12.5705 46.957C12.4165 47.0824 12.2303 47.145 12.0119 47.145C11.7935 47.145 11.6073 47.0824 11.4533 46.957C11.3029 46.8281 11.2277 46.6204 11.2277 46.334ZM16.4701 42.0908C16.975 42.0908 17.419 42.1821 17.8022 42.3647C18.1889 42.5438 18.4897 42.8088 18.7045 43.1597C18.9194 43.507 19.0268 43.9331 19.0268 44.438C19.0268 44.9894 18.9104 45.4657 18.6777 45.8667C18.4449 46.2642 18.103 46.5703 17.6518 46.7852C17.2006 47 16.651 47.1074 16.0029 47.1074C15.5911 47.1074 15.2061 47.0716 14.8481 47C14.4936 46.9284 14.1874 46.821 13.9296 46.6777V45.5391C14.1982 45.6895 14.5204 45.813 14.8964 45.9097C15.2724 46.0028 15.6322 46.0493 15.976 46.0493C16.3412 46.0493 16.6545 45.9956 16.9159 45.8882C17.1773 45.7808 17.3779 45.616 17.5175 45.394C17.6607 45.172 17.7323 44.891 17.7323 44.5508C17.7323 44.0996 17.5873 43.7523 17.2973 43.5088C17.0108 43.2617 16.5614 43.1382 15.9491 43.1382C15.7343 43.1382 15.5051 43.1579 15.2616 43.1973C15.0217 43.2331 14.8212 43.2725 14.6601 43.3154L14.1069 42.9878L14.4023 39.1475H18.4843V40.2593H15.5141L15.3422 42.2144C15.4711 42.1857 15.6251 42.1589 15.8041 42.1338C15.9832 42.1051 16.2052 42.0908 16.4701 42.0908ZM26.4393 47L24.1781 40.4419H24.1297C24.1405 40.5887 24.153 40.7892 24.1673 41.0435C24.1817 41.2977 24.1942 41.5698 24.2049 41.8599C24.2157 42.1499 24.2211 42.4274 24.2211 42.6924V47H23.0502V39.1475H24.8602L27.0355 45.4155H27.0677L29.3182 39.1475H31.1229V47H29.8929V42.6279C29.8929 42.388 29.8965 42.1284 29.9037 41.8491C29.9144 41.5698 29.9252 41.3049 29.9359 41.0542C29.9502 40.8035 29.961 40.603 29.9681 40.4526H29.9252L27.578 47H26.4393ZM34.1041 38.6426V40.6567C34.1041 40.8895 34.0969 41.1187 34.0826 41.3442C34.0719 41.5662 34.0611 41.7399 34.0504 41.8652H34.1041C34.2652 41.6074 34.489 41.3908 34.7755 41.2153C35.0655 41.0363 35.4361 40.9468 35.8873 40.9468C36.5927 40.9468 37.1602 41.2064 37.5899 41.7256C38.0196 42.2412 38.2345 43.0057 38.2345 44.019C38.2345 44.6922 38.136 45.258 37.939 45.7163C37.7421 46.1746 37.4646 46.522 37.1065 46.7583C36.752 46.991 36.3349 47.1074 35.8551 47.1074C35.4039 47.1074 35.0387 47.0251 34.7594 46.8604C34.4836 46.6921 34.267 46.4969 34.1095 46.2749H34.0181L33.7872 47H32.8419V38.6426H34.1041ZM35.5543 41.9727C35.1962 41.9727 34.9115 42.0443 34.7003 42.1875C34.4926 42.3307 34.3422 42.5456 34.2491 42.832C34.156 43.1149 34.1077 43.4748 34.1041 43.9116V44.0244C34.1041 44.6868 34.2079 45.1935 34.4156 45.5444C34.6269 45.8953 35.01 46.0708 35.565 46.0708C36.0054 46.0708 36.3438 45.8936 36.5802 45.5391C36.8165 45.181 36.9346 44.6689 36.9346 44.0029C36.9346 43.3298 36.8165 42.8231 36.5802 42.4829C36.3474 42.1427 36.0054 41.9727 35.5543 41.9727ZM42.5262 40.9414C43.2316 40.9414 43.7973 41.1992 44.2234 41.7148C44.6531 42.2305 44.868 42.9967 44.868 44.0137C44.868 44.6868 44.7677 45.2544 44.5672 45.7163C44.3702 46.1746 44.0927 46.522 43.7347 46.7583C43.3802 46.991 42.9666 47.1074 42.4939 47.1074C42.1932 47.1074 41.9318 47.068 41.7098 46.9893C41.4878 46.9105 41.298 46.8084 41.1404 46.6831C40.9829 46.5542 40.8504 46.4146 40.743 46.2642H40.6678C40.6857 46.4074 40.7018 46.5667 40.7161 46.7422C40.734 46.9141 40.743 47.0716 40.743 47.2148V49.6372H39.4754V41.0542H40.5066L40.6839 41.876H40.743C40.854 41.7077 40.9882 41.5519 41.1458 41.4087C41.3069 41.2655 41.5003 41.1527 41.7259 41.0703C41.955 40.9844 42.2218 40.9414 42.5262 40.9414ZM42.1878 41.9727C41.8405 41.9727 41.5612 42.0425 41.3499 42.1821C41.1422 42.3182 40.99 42.5241 40.8934 42.7998C40.8003 43.0755 40.7501 43.4211 40.743 43.8364V44.0137C40.743 44.4541 40.7877 44.8283 40.8772 45.1362C40.9703 45.4406 41.1225 45.6733 41.3338 45.8345C41.5486 45.992 41.8387 46.0708 42.2039 46.0708C42.5118 46.0708 42.7661 45.9867 42.9666 45.8184C43.1707 45.6501 43.3229 45.4102 43.4231 45.0986C43.5234 44.7871 43.5735 44.4201 43.5735 43.9976C43.5735 43.3566 43.459 42.8589 43.2298 42.5044C43.0042 42.1499 42.6569 41.9727 42.1878 41.9727ZM50.105 45.3027C50.105 45.693 50.0101 46.0225 49.8203 46.291C49.6306 46.5596 49.353 46.7637 48.9878 46.9033C48.6262 47.0394 48.1821 47.1074 47.6558 47.1074C47.2404 47.1074 46.8823 47.077 46.5816 47.0161C46.2844 46.9588 46.0033 46.8693 45.7383 46.7476V45.6572C46.0212 45.7897 46.3381 45.9043 46.689 46.001C47.0435 46.0977 47.3783 46.146 47.6934 46.146C48.1087 46.146 48.4077 46.0815 48.5904 45.9526C48.773 45.8201 48.8643 45.6447 48.8643 45.4263C48.8643 45.2974 48.8267 45.1828 48.7515 45.0825C48.6799 44.9787 48.5438 44.873 48.3433 44.7656C48.1463 44.6546 47.8563 44.5221 47.4732 44.3682C47.0972 44.2178 46.7803 44.0674 46.5225 43.917C46.2647 43.7666 46.0695 43.5858 45.937 43.3745C45.8045 43.1597 45.7383 42.8857 45.7383 42.5527C45.7383 42.0264 45.946 41.6271 46.3613 41.355C46.7803 41.0793 47.3335 40.9414 48.021 40.9414C48.3862 40.9414 48.73 40.979 49.0523 41.0542C49.3781 41.1258 49.6968 41.2314 50.0083 41.3711L49.6109 42.3218C49.3423 42.2036 49.072 42.1069 48.7998 42.0317C48.5313 41.953 48.2573 41.9136 47.978 41.9136C47.6522 41.9136 47.4033 41.9637 47.2315 42.064C47.0632 42.1642 46.979 42.3075 46.979 42.4937C46.979 42.6333 47.0202 42.7515 47.1026 42.8481C47.1849 42.9448 47.3264 43.0415 47.5269 43.1382C47.731 43.2349 48.0139 43.3548 48.3755 43.498C48.73 43.6341 49.0362 43.7773 49.294 43.9277C49.5554 44.0745 49.7559 44.2554 49.8955 44.4702C50.0352 44.6851 50.105 44.9626 50.105 45.3027Z" fill="#EFC42B"/>
</svg>
