<svg width="50" height="50" viewBox="0 0 50 50" fill="none" xmlns="http://www.w3.org/2000/svg">
<path d="M38.3124 4.92216C33.8443 1.99612 28.5278 0.6441 23.2047 1.08014C17.8816 1.51619 12.856 3.71538 8.92358 7.32954C4.99119 10.9437 2.37672 15.7663 1.49409 21.0338C0.611452 26.3013 1.5111 31.7128 4.05059 36.4114C6.59008 41.11 10.6243 44.8272 15.5145 46.9747C20.4048 49.1221 25.8716 49.5769 31.0495 48.2672C36.2273 46.9574 40.8204 43.958 44.1015 39.7436C47.3825 35.5293 49.1641 30.341 49.1641 25H41.3641C41.3641 28.6052 40.1615 32.1073 37.9468 34.952C35.7321 37.7966 32.6318 39.8213 29.1367 40.7053C25.6417 41.5894 21.9515 41.2824 18.6506 39.8329C15.3497 38.3834 12.6266 35.8742 10.9125 32.7027C9.19831 29.5311 8.59105 25.8784 9.18683 22.3228C9.78261 18.7673 11.5474 15.512 14.2017 13.0724C16.8561 10.6329 20.2484 9.14843 23.8415 8.8541C27.4346 8.55977 31.0232 9.47239 34.0392 11.4475L38.3124 4.92216Z" fill="#2FA84F" stroke="white"/>
<path d="M49.1639 25.0002C49.1639 21.0158 48.1719 17.0941 46.2774 13.5888C44.3829 10.0836 41.6456 7.10522 38.3123 4.92236L34.0391 11.4477C36.289 12.9211 38.1368 14.9315 39.4155 17.2975C40.6943 19.6636 41.3639 22.3107 41.3639 25.0002H49.1639Z" fill="#C6CACC" stroke="white"/>
</svg>
