<svg width="64" height="56" viewBox="0 0 64 56" fill="none" xmlns="http://www.w3.org/2000/svg">
<path fill-rule="evenodd" clip-rule="evenodd" d="M4 8.61538V6C4 4.89543 4.89543 4 6 4H58C59.1046 4 60 4.89543 60 6V8.61538C60 8.61538 57.2 9.53846 57.2 12.7692C57.2 16 60 16.9231 60 16.9231V39.0769C60 39.0769 57.2 40 57.2 43.2308C57.2 46.4615 60 47.3846 60 47.3846V50C60 51.1046 59.1046 52 58 52H6C4.89543 52 4 51.1046 4 50V47.3846C4 47.3846 6.8 46.4615 6.8 43.2308C6.8 40 4 39.0769 4 39.0769V16.9231C4 16.9231 6.8 16 6.8 12.7692C6.8 9.53846 4 8.61538 4 8.61538ZM5 17.5615V38.4385C5.30573 38.6063 5.68792 38.8536 6.07166 39.2014C6.94183 39.9903 7.8 41.2846 7.8 43.2308C7.8 45.177 6.94183 46.4712 6.07166 47.2601C5.68792 47.608 5.30573 47.8553 5 48.023V50C5 50.5523 5.44772 51 6 51H58C58.5523 51 59 50.5523 59 50V48.023C58.6943 47.8553 58.3121 47.608 57.9283 47.2601C57.0582 46.4712 56.2 45.177 56.2 43.2308C56.2 41.2846 57.0582 39.9903 57.9283 39.2014C58.3121 38.8536 58.6943 38.6063 59 38.4385V17.5615C58.6943 17.3937 58.3121 17.1464 57.9283 16.7986C57.0582 16.0097 56.2 14.7154 56.2 12.7692C56.2 10.823 57.0582 9.5288 57.9283 8.73991C58.3121 8.39202 58.6943 8.14472 59 7.977V6C59 5.44771 58.5523 5 58 5H6C5.44771 5 5 5.44772 5 6V7.977C5.30573 8.14472 5.68792 8.39202 6.07166 8.73991C6.94183 9.5288 7.8 10.823 7.8 12.7692C7.8 14.7154 6.94183 16.0097 6.07166 16.7986C5.68792 17.1464 5.30573 17.3937 5 17.5615Z" fill="#C6CACC"/>
<path d="M27.7124 27.648L27.2884 26.608H27.1844L27.2484 27.664V31H26.4324V25.416H27.4084L29.0724 28.768L29.5044 29.808H29.6084L29.5444 28.752V25.416H30.3604V31H29.3764L27.7124 27.648ZM31.0207 32.208L33.0367 25.08H33.7327L31.7167 32.208H31.0207ZM37.162 31L36.73 29.456H34.85L34.418 31H33.586L35.258 25.416H36.338L38.018 31H37.162ZM36.01 27L35.834 26.184H35.73L35.554 27L35.058 28.76H36.53L36.01 27Z" fill="#C6CACC"/>
</svg>
