<svg width="64" height="56" viewBox="0 0 64 56" fill="none" xmlns="http://www.w3.org/2000/svg">
<path fill-rule="evenodd" clip-rule="evenodd" d="M4 8.61538V6C4 4.89543 4.89543 4 6 4H58C59.1046 4 60 4.89543 60 6V8.61538C60 8.61538 57.2 9.53846 57.2 12.7692C57.2 16 60 16.9231 60 16.9231V39.0769C60 39.0769 57.2 40 57.2 43.2308C57.2 46.4615 60 47.3846 60 47.3846V50C60 51.1046 59.1046 52 58 52H6C4.89543 52 4 51.1046 4 50V47.3846C4 47.3846 6.8 46.4615 6.8 43.2308C6.8 40 4 39.0769 4 39.0769V16.9231C4 16.9231 6.8 16 6.8 12.7692C6.8 9.53846 4 8.61538 4 8.61538ZM5 17.5615V38.4385C5.30573 38.6063 5.68792 38.8536 6.07166 39.2014C6.94183 39.9903 7.8 41.2846 7.8 43.2308C7.8 45.177 6.94183 46.4712 6.07166 47.2601C5.68792 47.608 5.30573 47.8553 5 48.023V50C5 50.5523 5.44772 51 6 51H58C58.5523 51 59 50.5523 59 50V48.023C58.6943 47.8553 58.3121 47.608 57.9283 47.2601C57.0582 46.4712 56.2 45.177 56.2 43.2308C56.2 41.2846 57.0582 39.9903 57.9283 39.2014C58.3121 38.8536 58.6943 38.6063 59 38.4385V17.5615C58.6943 17.3937 58.3121 17.1464 57.9283 16.7986C57.0582 16.0097 56.2 14.7154 56.2 12.7692C56.2 10.823 57.0582 9.5288 57.9283 8.73991C58.3121 8.39202 58.6943 8.14472 59 7.977V6C59 5.44771 58.5523 5 58 5H6C5.44771 5 5 5.44772 5 6V7.977C5.30573 8.14472 5.68792 8.39202 6.07166 8.73991C6.94183 9.5288 7.8 10.823 7.8 12.7692C7.8 14.7154 6.94183 16.0097 6.07166 16.7986C5.68792 17.1464 5.30573 17.3937 5 17.5615Z" fill="#78909C"/>
<path d="M16.5613 25V19.416H18.7693C19.2493 19.416 19.6093 19.56 19.8493 19.848C20.0946 20.1307 20.2173 20.5413 20.2173 21.08C20.2173 21.6187 20.0946 22.032 19.8493 22.32C19.6093 22.6027 19.2493 22.744 18.7693 22.744H17.4093V25H16.5613ZM17.4093 21.992H18.6973C18.9 21.992 19.052 21.9413 19.1533 21.84C19.26 21.7333 19.3133 21.5653 19.3133 21.336V20.824C19.3133 20.5947 19.26 20.4293 19.1533 20.328C19.052 20.2213 18.9 20.168 18.6973 20.168H17.4093V21.992ZM21.9562 25H21.1082V19.416H23.3162C23.7962 19.416 24.1562 19.56 24.3962 19.848C24.6415 20.1307 24.7642 20.5387 24.7642 21.072C24.7642 21.504 24.6842 21.8533 24.5242 22.12C24.3642 22.3867 24.1242 22.5653 23.8042 22.656L24.8682 25H23.9242L22.9562 22.72H21.9562V25ZM23.2442 22.008C23.4469 22.008 23.5989 21.9573 23.7002 21.856C23.8069 21.7493 23.8602 21.5787 23.8602 21.344V20.824C23.8602 20.5893 23.8069 20.4213 23.7002 20.32C23.5989 20.2133 23.4469 20.16 23.2442 20.16H21.9562V22.008H23.2442ZM25.8426 25V19.416H29.0826V20.16H26.6906V21.792H28.8506V22.528H26.6906V24.256H29.0826V25H25.8426ZM31.2368 25L29.5968 19.416H30.4848L31.4768 22.928L31.7088 24.232H31.8128L32.0448 22.928L33.0288 19.416H33.9008L32.2688 25H31.2368ZM34.4313 25V24.32H35.1113V20.096H34.4313V19.416H36.6393V20.096H35.9593V24.32H36.6393V25H34.4313ZM37.6629 25V19.416H40.9029V20.16H38.5109V21.792H40.6709V22.528H38.5109V24.256H40.9029V25H37.6629ZM42.6959 25L41.5119 19.416H42.3759L43.0319 22.8L43.2079 24.096H43.3119L43.4879 22.816L44.1919 19.416H45.2239L45.9359 22.816L46.1119 24.096H46.2159L46.3919 22.8L47.0479 19.416H47.8799L46.6559 25H45.6399L44.9199 21.56L44.7439 20.272H44.6479L44.4719 21.56L43.7199 25H42.6959ZM15.2527 31.416H17.0927C17.4234 31.416 17.7167 31.4693 17.9727 31.576C18.2341 31.6827 18.4527 31.8507 18.6287 32.08C18.8101 32.304 18.9461 32.592 19.0367 32.944C19.1327 33.296 19.1807 33.7173 19.1807 34.208C19.1807 34.6987 19.1327 35.12 19.0367 35.472C18.9461 35.824 18.8101 36.1147 18.6287 36.344C18.4527 36.568 18.2341 36.7333 17.9727 36.84C17.7167 36.9467 17.4234 37 17.0927 37H15.2527V31.416ZM17.0927 36.256C17.4607 36.256 17.7487 36.1387 17.9567 35.904C18.1647 35.664 18.2687 35.3147 18.2687 34.856V33.56C18.2687 33.1013 18.1647 32.7547 17.9567 32.52C17.7487 32.28 17.4607 32.16 17.0927 32.16H16.1007V36.256H17.0927ZM19.9742 37V36.32H20.6542V32.096H19.9742V31.416H22.1822V32.096H21.5022V36.32H22.1822V37H19.9742ZM24.7178 37.096C24.3018 37.096 23.9392 37.0187 23.6298 36.864C23.3258 36.704 23.0645 36.4747 22.8458 36.176L23.4298 35.64C23.5952 35.8693 23.7845 36.0453 23.9978 36.168C24.2112 36.2907 24.4538 36.352 24.7258 36.352C25.3872 36.352 25.7178 36.048 25.7178 35.44C25.7178 35.1947 25.6592 35.008 25.5418 34.88C25.4245 34.7467 25.2218 34.6453 24.9338 34.576L24.4778 34.48C23.9765 34.368 23.6058 34.1893 23.3658 33.944C23.1312 33.6933 23.0138 33.344 23.0138 32.896C23.0138 32.3787 23.1685 31.9867 23.4778 31.72C23.7925 31.4533 24.2298 31.32 24.7898 31.32C25.1898 31.32 25.5258 31.3893 25.7978 31.528C26.0752 31.6613 26.3152 31.872 26.5178 32.16L25.9338 32.672C25.7898 32.4693 25.6272 32.3173 25.4458 32.216C25.2698 32.1147 25.0458 32.064 24.7738 32.064C24.4698 32.064 24.2405 32.128 24.0858 32.256C23.9365 32.3787 23.8618 32.584 23.8618 32.872C23.8618 33.1067 23.9205 33.2853 24.0378 33.408C24.1605 33.5253 24.3578 33.616 24.6298 33.68L25.0858 33.784C25.3525 33.8427 25.5792 33.9173 25.7658 34.008C25.9525 34.0933 26.1045 34.2 26.2218 34.328C26.3445 34.456 26.4325 34.608 26.4858 34.784C26.5392 34.9547 26.5658 35.1547 26.5658 35.384C26.5658 35.944 26.4032 36.3707 26.0778 36.664C25.7578 36.952 25.3045 37.096 24.7178 37.096ZM30.6385 37L30.2065 35.456H28.3265L27.8945 37H27.0625L28.7345 31.416H29.8145L31.4945 37H30.6385ZM29.4865 33L29.3105 32.184H29.2065L29.0305 33L28.5345 34.76H30.0065L29.4865 33ZM32.2762 31.416H34.5402C34.9722 31.416 35.3002 31.5387 35.5242 31.784C35.7482 32.0293 35.8602 32.3867 35.8602 32.856C35.8602 33.2133 35.7828 33.4933 35.6282 33.696C35.4735 33.8987 35.2522 34.0133 34.9642 34.04V34.136C35.1242 34.136 35.2682 34.168 35.3962 34.232C35.5295 34.2907 35.6442 34.376 35.7402 34.488C35.8362 34.6 35.9108 34.7333 35.9642 34.888C36.0175 35.0427 36.0442 35.2107 36.0442 35.392C36.0442 35.632 36.0122 35.8507 35.9482 36.048C35.8895 36.2453 35.8042 36.416 35.6922 36.56C35.5802 36.6987 35.4442 36.808 35.2842 36.888C35.1295 36.9627 34.9562 37 34.7642 37H32.2762V31.416ZM33.1242 36.256H34.5162C34.7188 36.256 34.8735 36.2027 34.9802 36.096C35.0868 35.984 35.1402 35.808 35.1402 35.568V35.2C35.1402 34.96 35.0868 34.7867 34.9802 34.68C34.8735 34.568 34.7188 34.512 34.5162 34.512H33.1242V36.256ZM33.1242 33.784H34.3802C34.5668 33.784 34.7108 33.736 34.8122 33.64C34.9135 33.5387 34.9642 33.376 34.9642 33.152V32.792C34.9642 32.568 34.9135 32.408 34.8122 32.312C34.7108 32.2107 34.5668 32.16 34.3802 32.16H33.1242V33.784ZM37.034 37V31.416H37.882V36.256H39.914V37H37.034ZM40.7527 37V31.416H43.9927V32.16H41.6007V33.792H43.7607V34.528H41.6007V36.256H43.9927V37H40.7527ZM45.0418 31.416H46.8818C47.2124 31.416 47.5058 31.4693 47.7618 31.576C48.0231 31.6827 48.2418 31.8507 48.4178 32.08C48.5991 32.304 48.7351 32.592 48.8258 32.944C48.9218 33.296 48.9698 33.7173 48.9698 34.208C48.9698 34.6987 48.9218 35.12 48.8258 35.472C48.7351 35.824 48.5991 36.1147 48.4178 36.344C48.2418 36.568 48.0231 36.7333 47.7618 36.84C47.5058 36.9467 47.2124 37 46.8818 37H45.0418V31.416ZM46.8818 36.256C47.2498 36.256 47.5378 36.1387 47.7458 35.904C47.9538 35.664 48.0578 35.3147 48.0578 34.856V33.56C48.0578 33.1013 47.9538 32.7547 47.7458 32.52C47.5378 32.28 47.2498 32.16 46.8818 32.16H45.8898V36.256H46.8818Z" fill="#78909C"/>
</svg>
